2026-01-04T11:50:45.672Z WE_ztjKCZtR:[Step S01] [2.58.02] Server relay initialising job
2026-01-04T11:50:45.673Z WE_ztjKCZtR:Server: linux_x64_docker_true
2026-01-04T11:50:45.673Z WE_ztjKCZtR:Server relay adding file to staged files
2026-01-04T11:50:45.673Z WE_ztjKCZtR:Server relay sending job to Node relay: MyInternalNode
2026-01-04T11:50:45.673Z WE_ztjKCZtR:Node[MyInternalNode]:[Step N01] [2.58.02] Node relay received job
2026-01-04T11:50:45.674Z WE_ztjKCZtR:Node[MyInternalNode]:{"nodeName":"MyInternalNode","serverURL":"http://0.0.0.0:8266","serverIP":"0.0.0.0","serverPort":"8266","handbrakePath":"","ffmpegPath":"","mkvpropeditPath":"","pathTranslators":[{"server":"","node":""}],"nodeType":"mapped","unmappedNodeCache":"/app/unmappedNodeCache","logLevel":"INFO","priority":-1,"platform_arch_isdocker":"linux_x64_docker_true","processPid":664,"cronPluginUpdate":"","apiKey":"","maxLogSizeMB":"10","pollInterval":2000,"startPaused":false,"nodeID":"-2RaUzM4Y","seededWorkerLimits":{},"nodeRegisteredCount":1}
2026-01-04T11:50:45.674Z WE_ztjKCZtR:Node[MyInternalNode]:Node relay sending job to worker:lined-lark
2026-01-04T11:50:45.674Z WE_ztjKCZtR:Node[MyInternalNode]:Worker[lined-lark]:[Step W01] Received file, original: "/media/tv/The Vendetta of An/Season 1/The.Vendetta.of.An.S01E14.1080p.NF.WEB-DL.AAC2.0.H.264-POWER.mkv"
2026-01-04T11:50:45.674Z WE_ztjKCZtR:Node[MyInternalNode]:Worker[lined-lark]:{"workerType":"transcodegpu"}
2026-01-04T11:50:45.675Z WE_ztjKCZtR:Node[MyInternalNode]:Worker[lined-lark]:{"ffmpegPath":"tdarr-ffmpeg"}
2026-01-04T11:50:45.675Z WE_ztjKCZtR:Node[MyInternalNode]:Worker[lined-lark]:{"handbrakePath":"HandBrakeCLI"}
2026-01-04T11:50:45.675Z WE_ztjKCZtR:Node[MyInternalNode]:Worker[lined-lark]:{"mkvpropeditPath":"mkvpropedit"}
2026-01-04T11:50:45.675Z WE_ztjKCZtR:Node[MyInternalNode]:Worker[lined-lark]:{"gpuSelect":"-"}
2026-01-04T11:50:45.676Z WE_ztjKCZtR:Node[MyInternalNode]:Worker[lined-lark]:{"allowGpuDoCpu":false}
2026-01-04T11:50:45.676Z WE_ztjKCZtR:Node[MyInternalNode]:Worker[lined-lark]:{"thoroughHealthCheckCpuExtraInputArgs":""}
2026-01-04T11:50:45.676Z WE_ztjKCZtR:Node[MyInternalNode]:Worker[lined-lark]:{"thoroughHealthCheckGpuExtraInputArgs":""}
2026-01-04T11:50:45.676Z WE_ztjKCZtR:Node[MyInternalNode]:Worker[lined-lark]:{"thoroughHealthCheckCpuExtraArgs":""}
2026-01-04T11:50:45.677Z WE_ztjKCZtR:Node[MyInternalNode]:Worker[lined-lark]:{"thoroughHealthCheckGpuExtraArgs":""}
2026-01-04T11:50:45.677Z WE_ztjKCZtR:Node[MyInternalNode]:Worker[lined-lark]:{"logFullCliOutput":false}
2026-01-04T11:50:45.677Z WE_ztjKCZtR:Node[MyInternalNode]:Worker[lined-lark]:{"runMkvpropedit":false}
2026-01-04T11:50:45.677Z WE_ztjKCZtR:Node[MyInternalNode]:Worker[lined-lark]:{"dontCleanWorkerCacheFolder":false}
2026-01-04T11:50:45.678Z WE_ztjKCZtR:Node[MyInternalNode]:Worker[lined-lark]:Path translating objects
2026-01-04T11:50:45.678Z WE_ztjKCZtR:Node[MyInternalNode]:Worker[lined-lark]:Running path translator tests
2026-01-04T11:50:45.678Z WE_ztjKCZtR:Node[MyInternalNode]:Worker[lined-lark]:Path translator tests passed
2026-01-04T11:50:45.678Z WE_ztjKCZtR:Node[MyInternalNode]:Worker[lined-lark]:{"librarySettings":{"_id":"KU0woozLb","priority":1,"name":"TV Shows","folder":"/media/tv","foldersToIgnore":"","foldersToIgnoreCaseInsensitive":false,"folderWatchScanInterval":30,"scannerThreadCount":2,"cache":"/tmp","output":".","folderToFolderConversion":false,"folderToFolderConversionDeleteSource":false,"folderToFolderRecordHistory":true,"copyIfConditionsMet":false,"container":".mkv","containerFilter":"mkv,mp4,mov,m4v,mpg,mpeg,avi,flv,webm,wmv,vob,evo,iso,m2ts,ts","createdAt":1675837380368,"folderWatching":false,"useFsEvents":false,"scheduledScanFindNew":false,"processLibrary":true,"processTranscodes":true,"processHealthChecks":true,"scanOnStart":false,"exifToolScan":true,"mediaInfoScan":true,"ffprobeShowData":false,"isDirectoryLibrary":false,"closedCaptionScan":false,"scanButtons":true,"scanFound":"Files found:0","navItemSelected":"navSourceFolder","pluginIDs":[{"_id":"plugin1","id":"Tdarr_Plugin_MC93_MigzImageRemoval","checked":true,"source":"Community","priority":0,"InputsDB":{}},{"_id":"plugin2","id":"Tdarr_Plugin_lmg1_Reorder_Streams","checked":true,"source":"Community","priority":1,"InputsDB":{}},{"_id":"plugin4","id":"Tdarr_Plugin_MC93_Migz1FFMPEG","checked":true,"source":"Community","priority":2,"InputsDB":{}},{"_id":"plugin5","id":"Tdarr_Plugin_a9he_New_file_size_check","checked":true,"source":"Community","priority":3,"InputsDB":{}}],"pluginCommunity":true,"handbrake":true,"ffmpeg":false,"handbrakescan":true,"ffmpegscan":false,"preset":"-Z \"Very Fast 1080p30\"","decisionMaker":{"settingsPlugin":true,"settingsFlows":false,"settingsVideo":false,"videoExcludeSwitch":true,"video_codec_names_exclude":[{"codec":"hevc","checked":false},{"codec":"h264","checked":true}],"video_size_range_include":{"min":0,"max":100000},"video_height_range_include":{"min":0,"max":3000},"video_width_range_include":{"min":0,"max":4000},"settingsAudio":false,"audioExcludeSwitch":true,"audio_codec_names_exclude":[{"codec":"mp3","checked":true},{"codec":"aac","checked":false}],"audio_size_range_include":{"min":0,"max":10}},"schedule":[{"_id":"Sun:00-01","checked":true},{"_id":"Sun:01-02","checked":true},{"_id":"Sun:02-03","checked":true},{"_id":"Sun:03-04","checked":true},{"_id":"Sun:04-05","checked":true},{"_id":"Sun:05-06","checked":true},{"_id":"Sun:06-07","checked":true},{"_id":"Sun:07-08","checked":true},{"_id":"Sun:08-09","checked":true},{"_id":"Sun:09-10","checked":true},{"_id":"Sun:10-11","checked":true},{"_id":"Sun:11-12","checked":true},{"_id":"Sun:12-13","checked":true},{"_id":"Sun:13-14","checked":true},{"_id":"Sun:14-15","checked":true},{"_id":"Sun:15-16","checked":true},{"_id":"Sun:16-17","checked":true},{"_id":"Sun:17-18","checked":true},{"_id":"Sun:18-19","checked":true},{"_id":"Sun:19-20","checked":true},{"_id":"Sun:20-21","checked":true},{"_id":"Sun:21-22","checked":true},{"_id":"Sun:22-23","checked":true},{"_id":"Sun:23-00","checked":true},{"_id":"Mon:00-01","checked":true},{"_id":"Mon:01-02","checked":true},{"_id":"Mon:02-03","checked":true},{"_id":"Mon:03-04","checked":true},{"_id":"Mon:04-05","checked":true},{"_id":"Mon:05-06","checked":true},{"_id":"Mon:06-07","checked":true},{"_id":"Mon:07-08","checked":true},{"_id":"Mon:08-09","checked":true},{"_id":"Mon:09-10","checked":true},{"_id":"Mon:10-11","checked":true},{"_id":"Mon:11-12","checked":true},{"_id":"Mon:12-13","checked":true},{"_id":"Mon:13-14","checked":true},{"_id":"Mon:14-15","checked":true},{"_id":"Mon:15-16","checked":true},{"_id":"Mon:16-17","checked":true},{"_id":"Mon:17-18","checked":true},{"_id":"Mon:18-19","checked":true},{"_id":"Mon:19-20","checked":true},{"_id":"Mon:20-21","checked":true},{"_id":"Mon:21-22","checked":true},{"_id":"Mon:22-23","checked":true},{"_id":"Mon:23-00","checked":true},{"_id":"Tue:00-01","checked":true},{"_id":"Tue:01-02","checked":true},{"_id":"Tue:02-03","checked":true},{"_id":"Tue:03-04","checked":true},{"_id":"Tue:04-05","checked":true},{"_id":"Tue:05-06","checked":true},{"_id":"Tue:06-07","checked":true},{"_id":"Tue:07-08","checked":true},{"_id":"Tue:08-09","checked":true},{"_id":"Tue:09-10","checked":true},{"_id":"Tue:10-11","checked":true},{"_id":"Tue:11-12","checked":true},{"_id":"Tue:12-13","checked":true},{"_id":"Tue:13-14","checked":true},{"_id":"Tue:14-15","checked":true},{"_id":"Tue:15-16","checked":true},{"_id":"Tue:16-17","checked":true},{"_id":"Tue:17-18","checked":true},{"_id":"Tue:18-19","checked":true},{"_id":"Tue:19-20","checked":true},{"_id":"Tue:20-21","checked":true},{"_id":"Tue:21-22","checked":true},{"_id":"Tue:22-23","checked":true},{"_id":"Tue:23-00","checked":true},{"_id":"Wed:00-01","checked":true},{"_id":"Wed:01-02","checked":true},{"_id":"Wed:02-03","checked":true},{"_id":"Wed:03-04","checked":true},{"_id":"Wed:04-05","checked":true},{"_id":"Wed:05-06","checked":true},{"_id":"Wed:06-07","checked":true},{"_id":"Wed:07-08","checked":true},{"_id":"Wed:08-09","checked":true},{"_id":"Wed:09-10","checked":true},{"_id":"Wed:10-11","checked":true},{"_id":"Wed:11-12","checked":true},{"_id":"Wed:12-13","checked":true},{"_id":"Wed:13-14","checked":true},{"_id":"Wed:14-15","checked":true},{"_id":"Wed:15-16","checked":true},{"_id":"Wed:16-17","checked":true},{"_id":"Wed:17-18","checked":true},{"_id":"Wed:18-19","checked":true},{"_id":"Wed:19-20","checked":true},{"_id":"Wed:20-21","checked":true},{"_id":"Wed:21-22","checked":true},{"_id":"Wed:22-23","checked":true},{"_id":"Wed:23-00","checked":true},{"_id":"Thur:00-01","checked":true},{"_id":"Thur:01-02","checked":true},{"_id":"Thur:02-03","checked":true},{"_id":"Thur:03-04","checked":true},{"_id":"Thur:04-05","checked":true},{"_id":"Thur:05-06","checked":true},{"_id":"Thur:06-07","checked":true},{"_id":"Thur:07-08","checked":true},{"_id":"Thur:08-09","checked":true},{"_id":"Thur:09-10","checked":true},{"_id":"Thur:10-11","checked":true},{"_id":"Thur:11-12","checked":true},{"_id":"Thur:12-13","checked":true},{"_id":"Thur:13-14","checked":true},{"_id":"Thur:14-15","checked":true},{"_id":"Thur:15-16","checked":true},{"_id":"Thur:16-17","checked":true},{"_id":"Thur:17-18","checked":true},{"_id":"Thur:18-19","checked":true},{"_id":"Thur:19-20","checked":true},{"_id":"Thur:20-21","checked":true},{"_id":"Thur:21-22","checked":true},{"_id":"Thur:22-23","checked":true},{"_id":"Thur:23-00","checked":true},{"_id":"Fri:00-01","checked":true},{"_id":"Fri:01-02","checked":true},{"_id":"Fri:02-03","checked":true},{"_id":"Fri:03-04","checked":true},{"_id":"Fri:04-05","checked":true},{"_id":"Fri:05-06","checked":true},{"_id":"Fri:06-07","checked":true},{"_id":"Fri:07-08","checked":true},{"_id":"Fri:08-09","checked":true},{"_id":"Fri:09-10","checked":true},{"_id":"Fri:10-11","checked":true},{"_id":"Fri:11-12","checked":true},{"_id":"Fri:12-13","checked":true},{"_id":"Fri:13-14","checked":true},{"_id":"Fri:14-15","checked":true},{"_id":"Fri:15-16","checked":true},{"_id":"Fri:16-17","checked":true},{"_id":"Fri:17-18","checked":true},{"_id":"Fri:18-19","checked":true},{"_id":"Fri:19-20","checked":true},{"_id":"Fri:20-21","checked":true},{"_id":"Fri:21-22","checked":true},{"_id":"Fri:22-23","checked":true},{"_id":"Fri:23-00","checked":true},{"_id":"Sat:00-01","checked":true},{"_id":"Sat:01-02","checked":true},{"_id":"Sat:02-03","checked":true},{"_id":"Sat:03-04","checked":true},{"_id":"Sat:04-05","checked":true},{"_id":"Sat:05-06","checked":true},{"_id":"Sat:06-07","checked":true},{"_id":"Sat:07-08","checked":true},{"_id":"Sat:08-09","checked":true},{"_id":"Sat:09-10","checked":true},{"_id":"Sat:10-11","checked":true},{"_id":"Sat:11-12","checked":true},{"_id":"Sat:12-13","checked":true},{"_id":"Sat:13-14","checked":true},{"_id":"Sat:14-15","checked":true},{"_id":"Sat:15-16","checked":true},{"_id":"Sat:16-17","checked":true},{"_id":"Sat:17-18","checked":true},{"_id":"Sat:18-19","checked":true},{"_id":"Sat:19-20","checked":true},{"_id":"Sat:20-21","checked":true},{"_id":"Sat:21-22","checked":true},{"_id":"Sat:22-23","checked":true},{"_id":"Sat:23-00","checked":true}],"totalHealthCheckCount":679,"totalTranscodeCount":1,"sizeDiff":0,"holdNewFiles":false,"holdFor":3600,"holdForDisplayUnit":"hours","pluginStackOverview":true,"filterResolutionsSkip":"","filterCodecsSkip":"","filterContainersSkip":"","processPluginsSequentially":true}}
2026-01-04T11:50:45.678Z WE_ztjKCZtR:Node[MyInternalNode]:Worker[lined-lark]:Fetching plugin data from server
2026-01-04T11:50:45.679Z WE_ztjKCZtR:Node[MyInternalNode]:Worker[lined-lark]:Scanning original library file
2026-01-04T11:50:45.679Z WE_ztjKCZtR:Node[MyInternalNode]:Worker[lined-lark]:{
2026-01-04T11:50:45.679Z   "exifToolScan": true,
2026-01-04T11:50:45.679Z   "mediaInfoScan": true,
2026-01-04T11:50:45.679Z   "closedCaptionScan": false
2026-01-04T11:50:45.679Z }
2026-01-04T11:50:45.679Z WE_ztjKCZtR:Node[MyInternalNode]:Worker[lined-lark]:Node scanning file
2026-01-04T11:50:56.701Z WE_ztjKCZtR:Node[MyInternalNode]:Worker[lined-lark]:Scan complete
2026-01-04T11:50:56.701Z WE_ztjKCZtR:Node[MyInternalNode]:Worker[lined-lark]:Original file scanned
2026-01-04T11:50:56.701Z WE_ztjKCZtR:Node[MyInternalNode]:Worker[lined-lark]:fileVersionOriginalLogJSONString:{"lastCliCommand":"","lastPluginId":"","sourceFile":{"_id":"/media/tv/The Vendetta of An/Season 1/The.Vendetta.of.An.S01E14.1080p.NF.WEB-DL.AAC2.0.H.264-POWER.mkv","DB":"KU0woozLb","footprintId":"kMBEe0gMZY","file":"/media/tv/The Vendetta of An/Season 1/The.Vendetta.of.An.S01E14.1080p.NF.WEB-DL.AAC2.0.H.264-POWER.mkv","fileNameWithoutExtension":"The.Vendetta.of.An.S01E14.1080p.NF.WEB-DL.AAC2.0.H.264-POWER","container":"mkv","scannerReads":{"ffProbeRead":"success","exiftoolRead":"success","mediaInfoRead":"success","closedCaptionRead":"not enabled"},"createdAt":1767549054504,"lastPluginDetails":"none","bit_rate":5872861,"statSync":{"dev":2064,"mode":33188,"nlink":1,"uid":1000,"gid":1000,"rdev":0,"blksize":4096,"ino":386663702,"size":1971151920,"blocks":3849920,"atimeMs":1767547236182.1018,"mtimeMs":1766053524000,"ctimeMs":1767547146114.9895,"birthtimeMs":1767547108777.6997,"atime":"2026-01-04T17:20:36.182Z","mtime":"2025-12-18T10:25:24.000Z","ctime":"2026-01-04T17:19:06.115Z","birthtime":"2026-01-04T17:18:28.778Z"},"file_size":1879.8369598388672,"ffProbeData":{"streams":[{"index":0,"codec_name":"h264","codec_long_name":"H.264 / AVC / MPEG-4 AVC / MPEG-4 part 10","profile":"High","codec_type":"video","codec_tag_string":"[0][0][0][0]","codec_tag":"0x0000","width":1920,"height":1080,"coded_width":1920,"coded_height":1080,"closed_captions":0,"film_grain":0,"has_b_frames":2,"sample_aspect_ratio":"1:1","display_aspect_ratio":"16:9","pix_fmt":"yuv420p","level":40,"chroma_location":"left","field_order":"progressive","refs":1,"is_avc":"true","nal_length_size":"4","r_frame_rate":"25/1","avg_frame_rate":"25/1","time_base":"1/1000","start_pts":0,"start_time":"0.000000","bits_per_raw_sample":"8","extradata_size":60,"disposition":{"default":1,"dub":0,"original":1,"comment":0,"lyrics":0,"karaoke":0,"forced":0,"hearing_impaired":0,"visual_impaired":0,"clean_effects":0,"attached_pic":0,"timed_thumbnails":0,"non_diegetic":0,"captions":0,"descriptions":0,"metadata":0,"dependent":0,"still_image":0,"multilayer":0},"tags":{"BPS":"5742053","DURATION":"00:44:45.000000000","NUMBER_OF_FRAMES":"67125","NUMBER_OF_BYTES":"1927176763","_STATISTICS_WRITING_APP":"mkvmerge v94.0 ('Initiate') 64-bit","_STATISTICS_WRITING_DATE_UTC":"2025-12-18 10:04:37","_STATISTICS_TAGS":"BPS DURATION NUMBER_OF_FRAMES NUMBER_OF_BYTES"}},{"index":1,"codec_name":"aac","codec_long_name":"AAC (Advanced Audio Coding)","profile":"HE-AAC","codec_type":"audio","codec_tag_string":"[0][0][0][0]","codec_tag":"0x0000","sample_fmt":"fltp","sample_rate":"48000","channels":2,"channel_layout":"stereo","bits_per_sample":0,"initial_padding":0,"r_frame_rate":"0/0","avg_frame_rate":"0/0","time_base":"1/1000","start_pts":0,"start_time":"0.000000","extradata_size":5,"disposition":{"default":1,"dub":0,"original":1,"comment":0,"lyrics":0,"karaoke":0,"forced":0,"hearing_impaired":0,"visual_impaired":0,"clean_effects":0,"attached_pic":0,"timed_thumbnails":0,"non_diegetic":0,"captions":0,"descriptions":0,"metadata":0,"dependent":0,"still_image":0,"multilayer":0},"tags":{"language":"chi","title":"Chinese","BPS":"127999","DURATION":"00:44:45.099000000","NUMBER_OF_FRAMES":"62932","NUMBER_OF_BYTES":"42961578","_STATISTICS_WRITING_APP":"mkvmerge v94.0 ('Initiate') 64-bit","_STATISTICS_WRITING_DATE_UTC":"2025-12-18 10:04:37","_STATISTICS_TAGS":"BPS DURATION NUMBER_OF_FRAMES NUMBER_OF_BYTES"}},{"index":2,"codec_name":"subrip","codec_long_name":"SubRip subtitle","codec_type":"subtitle","codec_tag_string":"[0][0][0][0]","codec_tag":"0x0000","r_frame_rate":"0/0","avg_frame_rate":"0/0","time_base":"1/1000","start_pts":0,"start_time":"0.000000","duration_ts":2685099,"duration":"2685.099000","disposition":{"default":0,"dub":0,"original":1,"comment":0,"lyrics":0,"karaoke":0,"forced":0,"hearing_impaired":0,"visual_impaired":0,"clean_effects":0,"attached_pic":0,"timed_thumbnails":0,"non_diegetic":0,"captions":0,"descriptions":0,"metadata":0,"dependent":0,"still_image":0,"multilayer":0},"tags":{"language":"chi","title":"Chinese (Simplified)","BPS":"38","DURATION":"00:39:48.200000000","NUMBER_OF_FRAMES":"594","NUMBER_OF_BYTES":"11527","_STATISTICS_WRITING_APP":"mkvmerge v94.0 ('Initiate') 64-bit","_STATISTICS_WRITING_DATE_UTC":"2025-12-18 10:04:37","_STATISTICS_TAGS":"BPS DURATION NUMBER_OF_FRAMES NUMBER_OF_BYTES"}},{"index":3,"codec_name":"subrip","codec_long_name":"SubRip subtitle","codec_type":"subtitle","codec_tag_string":"[0][0][0][0]","codec_tag":"0x0000","r_frame_rate":"0/0","avg_frame_rate":"0/0","time_base":"1/1000","start_pts":0,"start_time":"0.000000","duration_ts":2685099,"duration":"2685.099000","disposition":{"default":0,"dub":1,"original":0,"comment":0,"lyrics":0,"karaoke":0,"forced":0,"hearing_impaired":0,"visual_impaired":0,"clean_effects":0,"attached_pic":0,"timed_thumbnails":0,"non_diegetic":0,"captions":0,"descriptions":0,"metadata":0,"dependent":0,"still_image":0,"multilayer":0},"tags":{"language":"eng","title":"English","BPS":"53","DURATION":"00:40:18.960000000","NUMBER_OF_FRAMES":"581","NUMBER_OF_BYTES":"16222","_STATISTICS_WRITING_APP":"mkvmerge v94.0 ('Initiate') 64-bit","_STATISTICS_WRITING_DATE_UTC":"2025-12-18 10:04:37","_STATISTICS_TAGS":"BPS DURATION NUMBER_OF_FRAMES NUMBER_OF_BYTES"}},{"index":4,"codec_name":"subrip","codec_long_name":"SubRip subtitle","codec_type":"subtitle","codec_tag_string":"[0][0][0][0]","codec_tag":"0x0000","r_frame_rate":"0/0","avg_frame_rate":"0/0","time_base":"1/1000","start_pts":0,"start_time":"0.000000","duration_ts":2685099,"duration":"2685.099000","disposition":{"default":0,"dub":1,"original":0,"comment":0,"lyrics":0,"karaoke":0,"forced":0,"hearing_impaired":0,"visual_impaired":0,"clean_effects":0,"attached_pic":0,"timed_thumbnails":0,"non_diegetic":0,"captions":0,"descriptions":0,"metadata":0,"dependent":0,"still_image":0,"multilayer":0},"tags":{"language":"spa","title":"Spanish","BPS":"53","DURATION":"00:40:18.960000000","NUMBER_OF_FRAMES":"593","NUMBER_OF_BYTES":"16139","_STATISTICS_WRITING_APP":"mkvmerge v94.0 ('Initiate') 64-bit","_STATISTICS_WRITING_DATE_UTC":"2025-12-18 10:04:37","_STATISTICS_TAGS":"BPS DURATION NUMBER_OF_FRAMES NUMBER_OF_BYTES"}},{"index":5,"codec_name":"subrip","codec_long_name":"SubRip subtitle","codec_type":"subtitle","codec_tag_string":"[0][0][0][0]","codec_tag":"0x0000","r_frame_rate":"0/0","avg_frame_rate":"0/0","time_base":"1/1000","start_pts":0,"start_time":"0.000000","duration_ts":2685099,"duration":"2685.099000","disposition":{"default":0,"dub":1,"original":0,"comment":0,"lyrics":0,"karaoke":0,"forced":0,"hearing_impaired":0,"visual_impaired":0,"clean_effects":0,"attached_pic":0,"timed_thumbnails":0,"non_diegetic":0,"captions":0,"descriptions":0,"metadata":0,"dependent":0,"still_image":0,"multilayer":0},"tags":{"language":"ind","title":"Indonesian","BPS":"63","DURATION":"00:40:18.960000000","NUMBER_OF_FRAMES":"590","NUMBER_OF_BYTES":"19181","_STATISTICS_WRITING_APP":"mkvmerge v94.0 ('Initiate') 64-bit","_STATISTICS_WRITING_DATE_UTC":"2025-12-18 10:04:37","_STATISTICS_TAGS":"BPS DURATION NUMBER_OF_FRAMES NUMBER_OF_BYTES"}},{"index":6,"codec_name":"subrip","codec_long_name":"SubRip subtitle","codec_type":"subtitle","codec_tag_string":"[0][0][0][0]","codec_tag":"0x0000","r_frame_rate":"0/0","avg_frame_rate":"0/0","time_base":"1/1000","start_pts":0,"start_time":"0.000000","duration_ts":2685099,"duration":"2685.099000","disposition":{"default":0,"dub":1,"original":0,"comment":0,"lyrics":0,"karaoke":0,"forced":0,"hearing_impaired":0,"visual_impaired":0,"clean_effects":0,"attached_pic":0,"timed_thumbnails":0,"non_diegetic":0,"captions":0,"descriptions":0,"metadata":0,"dependent":0,"still_image":0,"multilayer":0},"tags":{"language":"por","title":"Portuguese (Brazil)","BPS":"50","DURATION":"00:42:53.720000000","NUMBER_OF_FRAMES":"573","NUMBER_OF_BYTES":"16189","_STATISTICS_WRITING_APP":"mkvmerge v94.0 ('Initiate') 64-bit","_STATISTICS_WRITING_DATE_UTC":"2025-12-18 10:04:37","_STATISTICS_TAGS":"BPS DURATION NUMBER_OF_FRAMES NUMBER_OF_BYTES"}},{"index":7,"codec_name":"subrip","codec_long_name":"SubRip subtitle","codec_type":"subtitle","codec_tag_string":"[0][0][0][0]","codec_tag":"0x0000","r_frame_rate":"0/0","avg_frame_rate":"0/0","time_base":"1/1000","start_pts":0,"start_time":"0.000000","duration_ts":2685099,"duration":"2685.099000","disposition":{"default":0,"dub":1,"original":0,"comment":0,"lyrics":0,"karaoke":0,"forced":0,"hearing_impaired":0,"visual_impaired":0,"clean_effects":0,"attached_pic":0,"timed_thumbnails":0,"non_diegetic":0,"captions":0,"descriptions":0,"metadata":0,"dependent":0,"still_image":0,"multilayer":0},"tags":{"language":"tha","title":"Thai","BPS":"134","DURATION":"00:40:19.000000000","NUMBER_OF_FRAMES":"550","NUMBER_OF_BYTES":"40567","_STATISTICS_WRITING_APP":"mkvmerge v94.0 ('Initiate') 64-bit","_STATISTICS_WRITING_DATE_UTC":"2025-12-18 10:04:37","_STATISTICS_TAGS":"BPS DURATION NUMBER_OF_FRAMES NUMBER_OF_BYTES"}},{"index":8,"codec_name":"subrip","codec_long_name":"SubRip subtitle","codec_type":"subtitle","codec_tag_string":"[0][0][0][0]","codec_tag":"0x0000","r_frame_rate":"0/0","avg_frame_rate":"0/0","time_base":"1/1000","start_pts":0,"start_time":"0.000000","duration_ts":2685099,"duration":"2685.099000","disposition":{"default":0,"dub":1,"original":0,"comment":0,"lyrics":0,"karaoke":0,"forced":0,"hearing_impaired":0,"visual_impaired":0,"clean_effects":0,"attached_pic":0,"timed_thumbnails":0,"non_diegetic":0,"captions":0,"descriptions":0,"metadata":0,"dependent":0,"still_image":0,"multilayer":0},"tags":{"language":"vie","title":"Vietnamese","BPS":"69","DURATION":"00:40:18.960000000","NUMBER_OF_FRAMES":"574","NUMBER_OF_BYTES":"21128","_STATISTICS_WRITING_APP":"mkvmerge v94.0 ('Initiate') 64-bit","_STATISTICS_WRITING_DATE_UTC":"2025-12-18 10:04:37","_STATISTICS_TAGS":"BPS DURATION NUMBER_OF_FRAMES NUMBER_OF_BYTES"}},{"index":9,"codec_name":"subrip","codec_long_name":"SubRip subtitle","codec_type":"subtitle","codec_tag_string":"[0][0][0][0]","codec_tag":"0x0000","r_frame_rate":"0/0","avg_frame_rate":"0/0","time_base":"1/1000","start_pts":0,"start_time":"0.000000","duration_ts":2685099,"duration":"2685.099000","disposition":{"default":0,"dub":1,"original":0,"comment":0,"lyrics":0,"karaoke":0,"forced":0,"hearing_impaired":0,"visual_impaired":0,"clean_effects":0,"attached_pic":0,"timed_thumbnails":0,"non_diegetic":0,"captions":0,"descriptions":0,"metadata":0,"dependent":0,"still_image":0,"multilayer":0},"tags":{"language":"chi","title":"Chinese (Traditional)","BPS":"40","DURATION":"00:40:18.960000000","NUMBER_OF_FRAMES":"608","NUMBER_OF_BYTES":"12142","_STATISTICS_WRITING_APP":"mkvmerge v94.0 ('Initiate') 64-bit","_STATISTICS_WRITING_DATE_UTC":"2025-12-18 10:04:37","_STATISTICS_TAGS":"BPS DURATION NUMBER_OF_FRAMES NUMBER_OF_BYTES"}}],"format":{"filename":"/media/tv/The Vendetta of An/Season 1/The.Vendetta.of.An.S01E14.1080p.NF.WEB-DL.AAC2.0.H.264-POWER.mkv","nb_streams":10,"nb_programs":0,"nb_stream_groups":0,"format_name":"matroska,webm","format_long_name":"Matroska / WebM","start_time":"0.000000","duration":"2685.099000","size":"1971151920","bit_rate":"5872861","probe_score":100,"tags":{"encoder":"libebml v1.4.5 + libmatroska v1.7.1","creation_time":"2025-12-18T10:04:37.000000Z"}}},"meta":{"SourceFile":"/media/tv/The Vendetta of An/Season 1/The.Vendetta.of.An.S01E14.1080p.NF.WEB-DL.AAC2.0.H.264-POWER.mkv","errors":[],"tz":"UTC","tzSource":"defaultVideosToUTC","Duration":2685.099,"DefaultDuration":0.042666666,"ExifToolVersion":12.6,"FileName":"The.Vendetta.of.An.S01E14.1080p.NF.WEB-DL.AAC2.0.H.264-POWER.mkv","Directory":"/media/tv/The Vendetta of An/Season 1","FileSize":"1971 MB","FileModifyDate":{"_ctor":"ExifDateTime","year":2025,"month":12,"day":18,"hour":10,"minute":25,"second":24,"tzoffsetMinutes":0,"rawValue":"2025:12:18 10:25:24+00:00","zoneName":"UTC"},"FileAccessDate":{"_ctor":"ExifDateTime","year":2026,"month":1,"day":4,"hour":17,"minute":20,"second":36,"tzoffsetMinutes":0,"rawValue":"2026:01:04 17:20:36+00:00","zoneName":"UTC"},"FileInodeChangeDate":{"_ctor":"ExifDateTime","year":2026,"month":1,"day":4,"hour":17,"minute":19,"second":6,"tzoffsetMinutes":0,"rawValue":"2026:01:04 17:19:06+00:00","zoneName":"UTC"},"FilePermissions":"-rw-r--r--","FileType":"MKV","FileTypeExtension":"mkv","MIMEType":"video/x-matroska","EBMLVersion":1,"EBMLReadVersion":1,"DocType":"matroska","DocTypeVersion":4,"DocTypeReadVersion":2,"TimecodeScale":"1 ms","MuxingApp":"libebml v1.4.5 + libmatroska v1.7.1","WritingApp":"mkvmerge v94.0 ('Initiate') 64-bit","DateTimeOriginal":{"_ctor":"ExifDateTime","year":2025,"month":12,"day":18,"hour":10,"minute":4,"second":37,"tzoffsetMinutes":0,"rawValue":"2025:12:18 10:04:37Z","zoneName":"UTC"},"VideoCodecID":"V_MPEG4/ISO/AVC","VideoFrameRate":25,"ImageWidth":1920,"ImageHeight":1080,"DisplayWidth":1920,"DisplayHeight":1080,"AudioCodecID":"A_AAC","AudioSampleRate":24000,"AudioChannels":2,"OutputAudioSampleRate":48000,"TrackNumber":10,"TrackUID":"ecf745363fe3f9e5","TrackType":"Subtitle","TrackDefault":"No","TrackLanguage":"chi","CodecID":"S_TEXT/UTF8","TrackLanguageIETF":"zh-Hant","TrackName":"Chinese (Traditional)","ChapterTimeStart":"0:42:20","ChapterString":"Credits","ChapterLanguage":"eng","ImageSize":"1920x1080","Megapixels":2.1},"mediaInfo":{"@ref":"","track":[{"@type":"General","UniqueID":"107167014953522233209839019304387937439","VideoCount":"1","AudioCount":"1","TextCount":"8","MenuCount":"1","Format":"Matroska","Format_Version":"4","FileSize":"1971151920","Duration":"2685.099","OverallBitRate_Mode":"VBR","OverallBitRate":"5872862","FrameRate":"25.000","FrameCount":"67125","StreamSize":"860484","IsStreamable":"Yes","Encoded_Date":"2025-12-18 10:04:37 UTC","Encoded_Application":"mkvmerge v94.0 ('Initiate') 64-bit","Encoded_Library":"libebml v1.4.5 + libmatroska v1.7.1"},{"@type":"Video","StreamOrder":"0","ID":"1","UniqueID":"7967985649893133104","Format":"AVC","Format_Profile":"High","Format_Level":"4","Format_Settings_CABAC":"Yes","Format_Settings_RefFrames":"4","CodecID":"V_MPEG4/ISO/AVC","Duration":"2685.000000000","BitRate_Mode":"VBR","BitRate":"5800000","BitRate_Maximum":"20000000","Width":"1920","Height":"1080","Stored_Height":"1088","Sampled_Width":"1920","Sampled_Height":"1080","PixelAspectRatio":"1.000","DisplayAspectRatio":"1.778","FrameRate_Mode":"CFR","FrameRate":"25.000","FrameRate_Num":"25","FrameRate_Den":"1","FrameCount":"67125","ColorSpace":"YUV","ChromaSubsampling":"4:2:0","BitDepth":"8","ScanType":"Progressive","Delay":"0.000","Delay_Source":"Container","StreamSize":"1927176763","Encoded_Library":"x264 - core 148 r2746 95846cf","Encoded_Library_Name":"x264","Encoded_Library_Version":"core 148 r2746 95846cf","Encoded_Library_Settings":"cabac=1 / ref=4 / deblock=1:0:0 / analyse=0x3:0x111 / me=umh / subme=10 / psy=1 / psy_rd=1.00:0.00 / mixed_ref=1 / me_range=120 / chroma_me=1 / trellis=2 / 8x8dct=1 / cqm=0 / deadzone=21,11 / fast_pskip=1 / chroma_qp_offset=-2 / threads=24 / lookahead_threads=6 / sliced_threads=0 / nr=0 / decimate=1 / interlaced=0 / bluray_compat=0 / stitchable=1 / constrained_intra=0 / bframes=16 / b_pyramid=2 / b_adapt=2 / b_bias=0 / direct=3 / weightb=1 / open_gop=0 / weightp=2 / keyint=250 / keyint_min=126 / scenecut=0 / intra_refresh=0 / rc_lookahead=250 / rc=2pass / mbtree=1 / bitrate=5800 / ratetol=1.0 / qcomp=0.50 / qpmin=6 / qpmax=51 / qpstep=4 / cplxblur=10.0 / qblur=0.5 / vbv_maxrate=20000 / vbv_bufsize=25000 / nal_hrd=vbr / filler=0 / ip_ratio=1.40 / aq=1:0.80","Default":"Yes","Forced":"No","BufferSize":"25000000"},{"@type":"Audio","StreamOrder":"1","ID":"2","UniqueID":"3663337089064948641","Format":"AAC","Format_Commercial_IfAny":"HE-AAC","Format_Settings_SBR":"Yes (Explicit)","Format_AdditionalFeatures":"LC SBR","CodecID":"A_AAC-2","Duration":"2685.099000000","BitRate":"127999","Channels":"2","ChannelPositions":"Front: L R","ChannelLayout":"L R","SamplesPerFrame":"2048","SamplingRate":"48000","SamplingCount":"128884752","FrameRate":"23.438","FrameCount":"62932","Compression_Mode":"Lossy","Delay":"0.000","Delay_Source":"Container","Video_Delay":"0.000","StreamSize":"42961578","Title":"Chinese","Language":"zh-CN","Default":"Yes","Forced":"No"},{"@type":"Text","@typeorder":"1","StreamOrder":"2","ID":"3","UniqueID":"16709668166896287024","Format":"UTF-8","CodecID":"S_TEXT/UTF8","Duration":"2388.200000000","BitRate":"38","FrameRate":"0.249","FrameCount":"594","ElementCount":"594","StreamSize":"11527","Title":"Chinese (Simplified)","Language":"zh-Hans","Default":"No","Forced":"No"},{"@type":"Text","@typeorder":"2","StreamOrder":"3","ID":"4","UniqueID":"16500587696515476286","Format":"UTF-8","CodecID":"S_TEXT/UTF8","Duration":"2418.960000000","BitRate":"53","FrameRate":"0.240","FrameCount":"581","ElementCount":"581","StreamSize":"16222","Title":"English","Language":"en-US","Default":"No","Forced":"No"},{"@type":"Text","@typeorder":"3","StreamOrder":"4","ID":"5","UniqueID":"3168745767238506913","Format":"UTF-8","CodecID":"S_TEXT/UTF8","Duration":"2418.960000000","BitRate":"53","FrameRate":"0.245","FrameCount":"593","ElementCount":"593","StreamSize":"16139","Title":"Spanish","Language":"es","Default":"No","Forced":"No"},{"@type":"Text","@typeorder":"4","StreamOrder":"5","ID":"6","UniqueID":"11018952653775636773","Format":"UTF-8","CodecID":"S_TEXT/UTF8","Duration":"2418.960000000","BitRate":"63","FrameRate":"0.244","FrameCount":"590","ElementCount":"590","StreamSize":"19181","Title":"Indonesian","Language":"id","Default":"No","Forced":"No"},{"@type":"Text","@typeorder":"5","StreamOrder":"6","ID":"7","UniqueID":"5003607310315418336","Format":"UTF-8","CodecID":"S_TEXT/UTF8","Duration":"2573.720000000","BitRate":"50","FrameRate":"0.223","FrameCount":"573","ElementCount":"573","StreamSize":"16189","Title":"Portuguese (Brazil)","Language":"pt-BR","Default":"No","Forced":"No"},{"@type":"Text","@typeorder":"6","StreamOrder":"7","ID":"8","UniqueID":"13580597701199009051","Format":"UTF-8","CodecID":"S_TEXT/UTF8","Duration":"2419.000000000","BitRate":"134","FrameRate":"0.227","FrameCount":"550","ElementCount":"550","StreamSize":"40567","Title":"Thai","Language":"th","Default":"No","Forced":"No"},{"@type":"Text","@typeorder":"7","StreamOrder":"8","ID":"9","UniqueID":"16135589802589011163","Format":"UTF-8","CodecID":"S_TEXT/UTF8","Duration":"2418.960000000","BitRate":"69","FrameRate":"0.237","FrameCount":"574","ElementCount":"574","StreamSize":"21128","Title":"Vietnamese","Language":"vi","Default":"No","Forced":"No"},{"@type":"Text","@typeorder":"8","StreamOrder":"9","ID":"10","UniqueID":"17075192611500980709","Format":"UTF-8","CodecID":"S_TEXT/UTF8","Duration":"2418.960000000","BitRate":"40","FrameRate":"0.251","FrameCount":"608","ElementCount":"608","StreamSize":"12142","Title":"Chinese (Traditional)","Language":"zh-Hant","Default":"No","Forced":"No"},{"@type":"Menu","extra":{"_00_00_00_000":"en:Part 01","_00_42_20_450":"en:Credits"}}]},"hasClosedCaptions":false,"bumped":false,"HealthCheck":"","TranscodeDecisionMaker":"","holdUntil":0,"fileMedium":"video","video_codec_name":"h264","audio_codec_name":"aac","video_resolution":"1080p","lastHealthCheckDate":0,"lastTranscodeDate":0,"history":"","oldSize":1.8357782810926437,"newSize":0,"newVsOldRatio":0,"videoStreamIndex":0,"duration":2685}}
2026-01-04T11:50:56.713Z WE_ztjKCZtR:Node[MyInternalNode]:Worker[lined-lark]:Source file to work on determined:"/media/tv/The Vendetta of An/Season 1/The.Vendetta.of.An.S01E14.1080p.NF.WEB-DL.AAC2.0.H.264-POWER.mkv"
2026-01-04T11:50:56.717Z WE_ztjKCZtR:Node[MyInternalNode]:Worker[lined-lark]:[Step W02] [C1] Running pre-process file
2026-01-04T11:50:56.719Z WE_ztjKCZtR:Node[MyInternalNode]:Worker[lined-lark]:Checking files can be accessed
2026-01-04T11:50:56.723Z WE_ztjKCZtR:Node[MyInternalNode]:Worker[lined-lark]:mapped node, file is original, no need to download
2026-01-04T11:50:56.727Z WE_ztjKCZtR:Node[MyInternalNode]:Worker[lined-lark]:Relevant paths can be accessed
2026-01-04T11:50:56.733Z WE_ztjKCZtR:Node[MyInternalNode]:Worker[lined-lark]:Source file: "/media/tv/The Vendetta of An/Season 1/The.Vendetta.of.An.S01E14.1080p.NF.WEB-DL.AAC2.0.H.264-POWER.mkv"
2026-01-04T11:50:56.736Z WE_ztjKCZtR:Node[MyInternalNode]:Worker[lined-lark]:Cache folder: "/tmp/tdarr-workDir2-WE_ztjKCZtR"
2026-01-04T11:50:56.743Z WE_ztjKCZtR:Node[MyInternalNode]:Worker[lined-lark]:[Step W03] [C1] Analysing file - running plugins
2026-01-04T11:50:56.745Z WE_ztjKCZtR:Node[MyInternalNode]:Worker[lined-lark]:transcode task, scanning for extra file details before transcode
2026-01-04T11:50:56.747Z WE_ztjKCZtR:Node[MyInternalNode]:Worker[lined-lark]:Node scanning file
2026-01-04T11:50:57.750Z WE_ztjKCZtR:Node[MyInternalNode]:Worker[lined-lark]:Scan complete
2026-01-04T11:50:57.751Z WE_ztjKCZtR:Node[MyInternalNode]:Worker[lined-lark]:Scan complete
2026-01-04T11:50:57.751Z WE_ztjKCZtR:Node[MyInternalNode]:Worker[lined-lark]:Updating Node relay: Processing
2026-01-04T11:50:57.752Z WE_ztjKCZtR:Node[MyInternalNode]:Worker[lined-lark]:[1/2] Checking file frame count
2026-01-04T11:50:57.752Z WE_ztjKCZtR:Node[MyInternalNode]:Worker[lined-lark]:[2/2] Frame count 0
2026-01-04T11:50:57.753Z WE_ztjKCZtR:Node[MyInternalNode]:Worker[lined-lark]:Transcode task, determining transcode settings
2026-01-04T11:50:57.753Z WE_ztjKCZtR:Node[MyInternalNode]:Worker[lined-lark]:Plugin stack selected
2026-01-04T11:50:57.754Z WE_ztjKCZtR:Node[MyInternalNode]:Worker[lined-lark]:Plugin: plugin1:  Tdarr_Plugin_MC93_MigzImageRemoval
2026-01-04T11:50:57.754Z WE_ztjKCZtR:Node[MyInternalNode]:Worker[lined-lark]:[1/5] Reading plugin
2026-01-04T11:50:57.754Z WE_ztjKCZtR:Node[MyInternalNode]:Worker[lined-lark]:[2/5] Plugin read finished
2026-01-04T11:50:57.755Z WE_ztjKCZtR:Node[MyInternalNode]:Worker[lined-lark]:[3/5] Installing dependencies
2026-01-04T11:50:57.755Z WE_ztjKCZtR:Node[MyInternalNode]:Worker[lined-lark]:[4/5] Running plugin
2026-01-04T11:50:57.755Z WE_ztjKCZtR:Node[MyInternalNode]:Worker[lined-lark]:{"pluginInputs":{}}
2026-01-04T11:50:57.756Z WE_ztjKCZtR:Node[MyInternalNode]:Worker[lined-lark]:[5/5] Running plugin finished
2026-01-04T11:50:57.757Z WE_ztjKCZtR:Node[MyInternalNode]:Worker[lined-lark]:Plugin: plugin2:  Tdarr_Plugin_lmg1_Reorder_Streams
2026-01-04T11:50:57.757Z WE_ztjKCZtR:Node[MyInternalNode]:Worker[lined-lark]:[1/5] Reading plugin
2026-01-04T11:50:57.757Z WE_ztjKCZtR:Node[MyInternalNode]:Worker[lined-lark]:[2/5] Plugin read finished
2026-01-04T11:50:57.758Z WE_ztjKCZtR:Node[MyInternalNode]:Worker[lined-lark]:[3/5] Installing dependencies
2026-01-04T11:50:57.759Z WE_ztjKCZtR:Node[MyInternalNode]:Worker[lined-lark]:[4/5] Running plugin
2026-01-04T11:50:57.759Z WE_ztjKCZtR:Node[MyInternalNode]:Worker[lined-lark]:{"pluginInputs":{}}
2026-01-04T11:50:57.760Z WE_ztjKCZtR:Node[MyInternalNode]:Worker[lined-lark]:[5/5] Running plugin finished
2026-01-04T11:50:57.760Z WE_ztjKCZtR:Node[MyInternalNode]:Worker[lined-lark]:Plugin: plugin4:  Tdarr_Plugin_MC93_Migz1FFMPEG
2026-01-04T11:50:57.761Z WE_ztjKCZtR:Node[MyInternalNode]:Worker[lined-lark]:[1/5] Reading plugin
2026-01-04T11:50:57.762Z WE_ztjKCZtR:Node[MyInternalNode]:Worker[lined-lark]:[2/5] Plugin read finished
2026-01-04T11:50:57.762Z WE_ztjKCZtR:Node[MyInternalNode]:Worker[lined-lark]:[3/5] Installing dependencies
2026-01-04T11:50:57.763Z WE_ztjKCZtR:Node[MyInternalNode]:Worker[lined-lark]:[4/5] Running plugin
2026-01-04T11:50:57.763Z WE_ztjKCZtR:Node[MyInternalNode]:Worker[lined-lark]:{"pluginInputs":{"container":"mkv","bitrate_cutoff":"","enable_10bit":false,"enable_bframes":false,"force_conform":false}}
2026-01-04T11:50:57.764Z WE_ztjKCZtR:Node[MyInternalNode]:Worker[lined-lark]:[5/5] Running plugin finished
2026-01-04T11:50:57.764Z WE_ztjKCZtR:Node[MyInternalNode]:Worker[lined-lark]:Worker config: {
2026-01-04T11:50:57.764Z   "processFile": true,
2026-01-04T11:50:57.764Z   "preset": "-c:v h264_cuvid, -map 0 -c:v hevc_nvenc -cq:v 19 -b:v 2800k -minrate 1959k -maxrate 3640k -bufsize 5600k -spatial_aq:v 1 -rc-lookahead:v 32 -c:a copy -c:s copy -max_muxing_queue_size 9999 ",
2026-01-04T11:50:57.764Z   "handBrakeMode": false,
2026-01-04T11:50:57.764Z   "FFmpegMode": true,
2026-01-04T11:50:57.764Z   "reQueueAfter": true,
2026-01-04T11:50:57.764Z   "infoLog": "Container for output selected as mkv. \nCurrent bitrate = 5600 \nBitrate settings: \nTarget = 2800 \nMinimum = 1959 \nMaximum = 3640 \nFile is not hevc or vp9. Transcoding. \n",
2026-01-04T11:50:57.764Z   "container": ".mkv",
2026-01-04T11:50:57.764Z   "lastPluginDetails": {
2026-01-04T11:50:57.764Z     "source": "Community",
2026-01-04T11:50:57.764Z     "id": "Tdarr_Plugin_MC93_Migz1FFMPEG",
2026-01-04T11:50:57.764Z     "number": "3/4"
2026-01-04T11:50:57.764Z   },
2026-01-04T11:50:57.764Z   "ffmpegMode": true,
2026-01-04T11:50:57.764Z   "cliToUse": "ffmpeg"
2026-01-04T11:50:57.764Z }
2026-01-04T11:50:57.765Z WE_ztjKCZtR:Node[MyInternalNode]:Worker[lined-lark]:Worker log: 
2026-01-04T11:50:57.765Z Pre-processing - Tdarr_Plugin_MC93_MigzImageRemoval
2026-01-04T11:50:57.765Z ☑File doesn't contain any unwanted image format streams.
2026-01-04T11:50:57.765Z 
2026-01-04T11:50:57.765Z Pre-processing - Tdarr_Plugin_lmg1_Reorder_Streams
2026-01-04T11:50:57.765Z File has video in first stream
2026-01-04T11:50:57.765Z  File meets conditions!
2026-01-04T11:50:57.765Z 
2026-01-04T11:50:57.765Z Pre-processing - Tdarr_Plugin_MC93_Migz1FFMPEG
2026-01-04T11:50:57.765Z Container for output selected as mkv. 
2026-01-04T11:50:57.765Z Current bitrate = 5600 
2026-01-04T11:50:57.765Z Bitrate settings: 
2026-01-04T11:50:57.765Z Target = 2800 
2026-01-04T11:50:57.765Z Minimum = 1959 
2026-01-04T11:50:57.765Z Maximum = 3640 
2026-01-04T11:50:57.765Z File is not hevc or vp9. Transcoding. 
2026-01-04T11:50:57.765Z 
2026-01-04T11:50:57.765Z WE_ztjKCZtR:Node[MyInternalNode]:Worker[lined-lark]:Worker will process
2026-01-04T11:50:57.766Z WE_ztjKCZtR:Node[MyInternalNode]:Worker[lined-lark]:[Step W04] [C1] Preparing command
2026-01-04T11:50:57.766Z WE_ztjKCZtR:Node[MyInternalNode]:Worker[lined-lark]:Cache file stem: "/tmp/tdarr-workDir2-WE_ztjKCZtR"
2026-01-04T11:50:57.766Z WE_ztjKCZtR:Node[MyInternalNode]:Worker[lined-lark]:Cache file path: "/tmp/tdarr-workDir2-WE_ztjKCZtR/The.Vendetta.of.An.S01E14.1080p.NF.WEB-DL.AAC2.0.H.264-POWER-TdarrCacheFile-Idn0wi1ms.mkv"
2026-01-04T11:50:57.767Z WE_ztjKCZtR:Node[MyInternalNode]:Worker[lined-lark]:Create transcode args
2026-01-04T11:50:57.767Z WE_ztjKCZtR:Node[MyInternalNode]:Worker[lined-lark]:Args:  -c:v h264_cuvid -i "/media/tv/The Vendetta of An/Season 1/The.Vendetta.of.An.S01E14.1080p.NF.WEB-DL.AAC2.0.H.264-POWER.mkv" -map 0 -c:v hevc_nvenc -cq:v 19 -b:v 2800k -minrate 1959k -maxrate 3640k -bufsize 5600k -spatial_aq:v 1 -rc-lookahead:v 32 -c:a copy -c:s copy -max_muxing_queue_size 9999 /tmp/tdarr-workDir2-WE_ztjKCZtR/The.Vendetta.of.An.S01E14.1080p.NF.WEB-DL.AAC2.0.H.264-POWER-TdarrCacheFile-Idn0wi1ms.mkv
2026-01-04T11:50:57.768Z WE_ztjKCZtR:Node[MyInternalNode]:Worker[lined-lark]:Getting source file size
2026-01-04T11:50:57.768Z WE_ztjKCZtR:Node[MyInternalNode]:Worker[lined-lark]:Source file size: 1.8357782810926437
2026-01-04T11:50:57.769Z WE_ztjKCZtR:Node[MyInternalNode]:Worker[lined-lark]:Performing safety check on worker config to see if old transcode args/container match new ones
2026-01-04T11:50:57.769Z WE_ztjKCZtR:Node[MyInternalNode]:Worker[lined-lark]:Safety check complete, all good
2026-01-04T11:50:57.770Z WE_ztjKCZtR:Node[MyInternalNode]:Worker[lined-lark]:[Step W05] [C1] Launching subworker
2026-01-04T11:50:57.771Z WE_ztjKCZtR:Node[MyInternalNode]:Worker[lined-lark]:Preparing to launch subworker
2026-01-04T11:50:57.771Z WE_ztjKCZtR:Node[MyInternalNode]:Worker[lined-lark]:Subworker launched
2026-01-04T11:50:57.772Z WE_ztjKCZtR:Node[MyInternalNode]:Worker[lined-lark]:[1/3] Sending command to subworker
2026-01-04T11:50:57.772Z WE_ztjKCZtR:Node[MyInternalNode]:Worker[lined-lark]:[2/3] tdarr-ffmpeg -c:v h264_cuvid -i "/media/tv/The Vendetta of An/Season 1/The.Vendetta.of.An.S01E14.1080p.NF.WEB-DL.AAC2.0.H.264-POWER.mkv" -map 0 -c:v hevc_nvenc -cq:v 19 -b:v 2800k -minrate 1959k -maxrate 3640k -bufsize 5600k -spatial_aq:v 1 -rc-lookahead:v 32 -c:a copy -c:s copy -max_muxing_queue_size 9999 /tmp/tdarr-workDir2-WE_ztjKCZtR/The.Vendetta.of.An.S01E14.1080p.NF.WEB-DL.AAC2.0.H.264-POWER-TdarrCacheFile-Idn0wi1ms.mkv
2026-01-04T11:50:57.772Z WE_ztjKCZtR:Node[MyInternalNode]:Worker[lined-lark]:[3/3] Command sent
2026-01-04T11:50:57.773Z WE_ztjKCZtR:Node[MyInternalNode]:Worker[lined-lark]:To see live CLI output, enable 'Log full FFmpeg/HandBrake output' in the staging section on the Tdarr tab before the job starts. Note this could increase the job report size substantially.
2026-01-04T11:50:57.773Z WE_ztjKCZtR:Node[MyInternalNode]:Worker[lined-lark]:Subworker:Online
2026-01-04T11:50:57.773Z WE_ztjKCZtR:Node[MyInternalNode]:Worker[lined-lark]:Subworker:Receiving transcode settings
2026-01-04T11:50:57.773Z WE_ztjKCZtR:Node[MyInternalNode]:Worker[lined-lark]:Subworker:Running CLI
2026-01-04T12:03:00.803Z WE_ztjKCZtR:Node[MyInternalNode]:Worker[lined-lark]:Subworker:a.Thread closed, code: 0
2026-01-04T12:03:00.804Z WE_ztjKCZtR:Node[MyInternalNode]:Worker[lined-lark]:Subworker exit approved, killing subworker
2026-01-04T12:03:00.804Z WE_ztjKCZtR:Node[MyInternalNode]:Worker[lined-lark]:Subworker killed
2026-01-04T12:03:00.805Z WE_ztjKCZtR:Node[MyInternalNode]:Worker[lined-lark]:b.Thread closed, code: 0
2026-01-04T12:03:00.805Z WE_ztjKCZtR:Node[MyInternalNode]:Worker[lined-lark]:CLI code: 0
2026-01-04T12:03:00.805Z WE_ztjKCZtR:Node[MyInternalNode]:Worker[lined-lark]:Last 200 lines of CLI log:
2026-01-04T12:03:00.806Z WE_ztjKCZtR:Node[MyInternalNode]:Worker[lined-lark]:frame=57422 fps= 92 q=30.0 size= 1045760KiB time=00:38:10.16 bitrate=3740.7kbits/s speed=3.67x    
2026-01-04T12:03:00.806Z frame=57422 fps= 92 q=30.0 size= 1045760KiB time=00:38:10.16 bitrate=3740.7kbits/s speed=3.67x    
2026-01-04T12:03:00.806Z frame=57422 fps= 92 q=30.0 size= 1045760KiB time=00:38:10.16 bitrate=3740.7kbits/s speed=3.67x    
2026-01-04T12:03:00.806Z frame=57422 fps= 92 q=30.0 size= 1045760KiB time=00:38:10.16 bitrate=3740.7kbits/s speed=3.66x    
2026-01-04T12:03:00.806Z frame=57422 fps= 92 q=30.0 size= 1045760KiB time=00:38:10.16 bitrate=3740.7kbits/s speed=3.66x    
2026-01-04T12:03:00.806Z frame=57422 fps= 92 q=30.0 size= 1045760KiB time=00:38:10.16 bitrate=3740.7kbits/s speed=3.66x    
2026-01-04T12:03:00.806Z frame=57422 fps= 92 q=30.0 size= 1045760KiB time=00:38:10.16 bitrate=3740.7kbits/s speed=3.65x    
2026-01-04T12:03:00.806Z frame=57422 fps= 92 q=30.0 size= 1045760KiB time=00:38:10.16 bitrate=3740.7kbits/s speed=3.65x    
2026-01-04T12:03:00.806Z frame=57422 fps= 91 q=30.0 size= 1045760KiB time=00:38:10.16 bitrate=3740.7kbits/s speed=3.65x    
2026-01-04T12:03:00.806Z frame=57422 fps= 91 q=30.0 size= 1045760KiB time=00:38:10.16 bitrate=3740.7kbits/s speed=3.65x    
2026-01-04T12:03:00.806Z frame=57422 fps= 91 q=30.0 size= 1045760KiB time=00:38:10.16 bitrate=3740.7kbits/s speed=3.64x    
2026-01-04T12:03:00.806Z frame=57422 fps= 91 q=30.0 size= 1045760KiB time=00:38:10.16 bitrate=3740.7kbits/s speed=3.64x    
2026-01-04T12:03:00.806Z frame=57422 fps= 91 q=30.0 size= 1045760KiB time=00:38:10.16 bitrate=3740.7kbits/s speed=3.64x    
2026-01-04T12:03:00.806Z frame=57422 fps= 91 q=30.0 size= 1045760KiB time=00:38:10.16 bitrate=3740.7kbits/s speed=3.63x    
2026-01-04T12:03:00.806Z frame=57422 fps= 91 q=30.0 size= 1045760KiB time=00:38:10.16 bitrate=3740.7kbits/s speed=3.63x    
2026-01-04T12:03:00.806Z frame=57422 fps= 91 q=30.0 size= 1045760KiB time=00:38:10.16 bitrate=3740.7kbits/s speed=3.63x    
2026-01-04T12:03:00.806Z frame=57422 fps= 91 q=30.0 size= 1045760KiB time=00:38:10.16 bitrate=3740.7kbits/s speed=3.63x    
2026-01-04T12:03:00.806Z frame=57422 fps= 91 q=30.0 size= 1045760KiB time=00:38:10.16 bitrate=3740.7kbits/s speed=3.62x    
2026-01-04T12:03:00.806Z frame=57422 fps= 91 q=30.0 size= 1045760KiB time=00:38:10.16 bitrate=3740.7kbits/s speed=3.62x    
2026-01-04T12:03:00.806Z frame=57422 fps= 91 q=30.0 size= 1045760KiB time=00:38:10.16 bitrate=3740.7kbits/s speed=3.62x    
2026-01-04T12:03:00.806Z frame=57422 fps= 91 q=30.0 size= 1045760KiB time=00:38:10.16 bitrate=3740.7kbits/s speed=3.61x    
2026-01-04T12:03:00.806Z frame=57422 fps= 91 q=30.0 size= 1045760KiB time=00:38:10.16 bitrate=3740.7kbits/s speed=3.61x    
2026-01-04T12:03:00.806Z frame=57422 fps= 90 q=30.0 size= 1045760KiB time=00:38:10.16 bitrate=3740.7kbits/s speed=3.61x    
2026-01-04T12:03:00.806Z frame=57422 fps= 90 q=30.0 size= 1045760KiB time=00:38:10.16 bitrate=3740.7kbits/s speed=3.61x    
2026-01-04T12:03:00.806Z frame=57422 fps= 90 q=30.0 size= 1045760KiB time=00:38:10.16 bitrate=3740.7kbits/s speed= 3.6x    
2026-01-04T12:03:00.806Z frame=57422 fps= 90 q=30.0 size= 1045760KiB time=00:38:10.16 bitrate=3740.7kbits/s speed= 3.6x    
2026-01-04T12:03:00.806Z frame=57422 fps= 90 q=30.0 size= 1045760KiB time=00:38:10.16 bitrate=3740.7kbits/s speed= 3.6x    
2026-01-04T12:03:00.806Z frame=57422 fps= 90 q=30.0 size= 1045760KiB time=00:38:10.16 bitrate=3740.7kbits/s speed=3.59x    
2026-01-04T12:03:00.806Z frame=57422 fps= 90 q=30.0 size= 1045760KiB time=00:38:10.16 bitrate=3740.7kbits/s speed=3.59x    
2026-01-04T12:03:00.806Z frame=57422 fps= 90 q=30.0 size= 1045760KiB time=00:38:10.16 bitrate=3740.7kbits/s speed=3.59x    
2026-01-04T12:03:00.806Z frame=57422 fps= 90 q=30.0 size= 1045760KiB time=00:38:10.16 bitrate=3740.7kbits/s speed=3.59x    
2026-01-04T12:03:00.806Z frame=57422 fps= 90 q=30.0 size= 1045760KiB time=00:38:10.16 bitrate=3740.7kbits/s speed=3.58x    
2026-01-04T12:03:00.806Z frame=57422 fps= 90 q=30.0 size= 1045760KiB time=00:38:10.16 bitrate=3740.7kbits/s speed=3.58x    
2026-01-04T12:03:00.806Z frame=57422 fps= 90 q=30.0 size= 1045760KiB time=00:38:10.16 bitrate=3740.7kbits/s speed=3.58x    
2026-01-04T12:03:00.806Z frame=57422 fps= 90 q=30.0 size= 1045760KiB time=00:38:10.16 bitrate=3740.7kbits/s speed=3.57x    
2026-01-04T12:03:00.806Z frame=57422 fps= 90 q=30.0 size= 1045760KiB time=00:38:10.16 bitrate=3740.7kbits/s speed=3.57x    
2026-01-04T12:03:00.806Z frame=57422 fps= 89 q=30.0 size= 1045760KiB time=00:38:10.16 bitrate=3740.7kbits/s speed=3.57x    
2026-01-04T12:03:00.806Z frame=57422 fps= 89 q=30.0 size= 1045760KiB time=00:38:10.16 bitrate=3740.7kbits/s speed=3.57x    
2026-01-04T12:03:00.806Z frame=57422 fps= 89 q=30.0 size= 1045760KiB time=00:38:10.16 bitrate=3740.7kbits/s speed=3.56x    
2026-01-04T12:03:00.806Z frame=57422 fps= 89 q=30.0 size= 1045760KiB time=00:38:10.16 bitrate=3740.7kbits/s speed=3.56x    
2026-01-04T12:03:00.806Z frame=57422 fps= 89 q=30.0 size= 1045760KiB time=00:38:10.16 bitrate=3740.7kbits/s speed=3.56x    
2026-01-04T12:03:00.806Z frame=57422 fps= 89 q=30.0 size= 1045760KiB time=00:38:10.16 bitrate=3740.7kbits/s speed=3.56x    
2026-01-04T12:03:00.806Z frame=57422 fps= 89 q=30.0 size= 1045760KiB time=00:38:10.16 bitrate=3740.7kbits/s speed=3.55x    
2026-01-04T12:03:00.806Z frame=57422 fps= 89 q=30.0 size= 1045760KiB time=00:38:10.16 bitrate=3740.7kbits/s speed=3.55x    
2026-01-04T12:03:00.806Z frame=57422 fps= 89 q=30.0 size= 1045760KiB time=00:38:10.16 bitrate=3740.7kbits/s speed=3.55x    
2026-01-04T12:03:00.806Z frame=57422 fps= 89 q=30.0 size= 1045760KiB time=00:38:10.16 bitrate=3740.7kbits/s speed=3.54x    
2026-01-04T12:03:00.806Z frame=57422 fps= 89 q=30.0 size= 1045760KiB time=00:38:10.16 bitrate=3740.7kbits/s speed=3.54x    
2026-01-04T12:03:00.806Z frame=57422 fps= 89 q=30.0 size= 1045760KiB time=00:38:10.16 bitrate=3740.7kbits/s speed=3.54x    
2026-01-04T12:03:00.806Z frame=57422 fps= 89 q=30.0 size= 1045760KiB time=00:38:10.16 bitrate=3740.7kbits/s speed=3.54x    
2026-01-04T12:03:00.806Z frame=57422 fps= 89 q=30.0 size= 1045760KiB time=00:38:10.16 bitrate=3740.7kbits/s speed=3.53x    
2026-01-04T12:03:00.806Z frame=57422 fps= 89 q=30.0 size= 1045760KiB time=00:38:10.16 bitrate=3740.7kbits/s speed=3.53x    
2026-01-04T12:03:00.806Z frame=57422 fps= 88 q=30.0 size= 1045760KiB time=00:38:10.16 bitrate=3740.7kbits/s speed=3.53x    
2026-01-04T12:03:00.806Z frame=57422 fps= 88 q=30.0 size= 1045760KiB time=00:38:10.16 bitrate=3740.7kbits/s speed=3.53x    
2026-01-04T12:03:00.806Z frame=57422 fps= 88 q=30.0 size= 1045760KiB time=00:38:10.16 bitrate=3740.7kbits/s speed=3.52x    
2026-01-04T12:03:00.806Z frame=57422 fps= 88 q=30.0 size= 1045760KiB time=00:38:10.16 bitrate=3740.7kbits/s speed=3.52x    
2026-01-04T12:03:00.806Z frame=57422 fps= 88 q=30.0 size= 1045760KiB time=00:38:10.16 bitrate=3740.7kbits/s speed=3.52x    
2026-01-04T12:03:00.806Z frame=57422 fps= 88 q=30.0 size= 1045760KiB time=00:38:10.16 bitrate=3740.7kbits/s speed=3.51x    
2026-01-04T12:03:00.806Z frame=57422 fps= 88 q=30.0 size= 1045760KiB time=00:38:10.16 bitrate=3740.7kbits/s speed=3.51x    
2026-01-04T12:03:00.806Z frame=57422 fps= 88 q=30.0 size= 1045760KiB time=00:38:10.16 bitrate=3740.7kbits/s speed=3.51x    
2026-01-04T12:03:00.806Z frame=57422 fps= 88 q=30.0 size= 1045760KiB time=00:38:10.16 bitrate=3740.7kbits/s speed=3.51x    
2026-01-04T12:03:00.806Z frame=57422 fps= 88 q=30.0 size= 1045760KiB time=00:38:10.16 bitrate=3740.7kbits/s speed= 3.5x    
2026-01-04T12:03:00.806Z frame=57422 fps= 88 q=30.0 size= 1045760KiB time=00:38:10.16 bitrate=3740.7kbits/s speed= 3.5x    
2026-01-04T12:03:00.806Z frame=57422 fps= 88 q=30.0 size= 1045760KiB time=00:38:10.16 bitrate=3740.7kbits/s speed= 3.5x    
2026-01-04T12:03:00.806Z frame=57422 fps= 88 q=30.0 size= 1045760KiB time=00:38:10.16 bitrate=3740.7kbits/s speed= 3.5x    
2026-01-04T12:03:00.806Z frame=57422 fps= 88 q=30.0 size= 1045760KiB time=00:38:10.16 bitrate=3740.7kbits/s speed=3.49x    
2026-01-04T12:03:00.806Z frame=57422 fps= 88 q=30.0 size= 1045760KiB time=00:38:10.16 bitrate=3740.7kbits/s speed=3.49x    
2026-01-04T12:03:00.806Z frame=57422 fps= 87 q=30.0 size= 1045760KiB time=00:38:10.16 bitrate=3740.7kbits/s speed=3.49x    
2026-01-04T12:03:00.806Z frame=57422 fps= 87 q=30.0 size= 1045760KiB time=00:38:10.16 bitrate=3740.7kbits/s speed=3.48x    
2026-01-04T12:03:00.806Z frame=57422 fps= 87 q=30.0 size= 1045760KiB time=00:38:10.16 bitrate=3740.7kbits/s speed=3.48x    
2026-01-04T12:03:00.806Z frame=57422 fps= 87 q=30.0 size= 1045760KiB time=00:38:10.16 bitrate=3740.7kbits/s speed=3.48x    
2026-01-04T12:03:00.806Z frame=57422 fps= 87 q=30.0 size= 1045760KiB time=00:38:10.16 bitrate=3740.7kbits/s speed=3.48x    
2026-01-04T12:03:00.806Z frame=57498 fps= 87 q=24.0 size= 1048064KiB time=00:38:10.16 bitrate=3749.0kbits/s speed=3.47x    
2026-01-04T12:03:00.806Z frame=57519 fps= 87 q=21.0 size= 1048064KiB time=00:38:10.16 bitrate=3749.0kbits/s speed=3.47x    
2026-01-04T12:03:00.806Z frame=57580 fps= 87 q=34.0 size= 1048064KiB time=00:38:10.16 bitrate=3749.0kbits/s speed=3.47x    
2026-01-04T12:03:00.806Z frame=57623 fps= 87 q=35.0 size= 1050368KiB time=00:38:10.16 bitrate=3757.2kbits/s speed=3.47x    
2026-01-04T12:03:00.806Z frame=57723 fps= 87 q=22.0 size= 1052672KiB time=00:38:10.16 bitrate=3765.5kbits/s speed=3.46x    
2026-01-04T12:03:00.806Z frame=57849 fps= 87 q=23.0 size= 1055488KiB time=00:38:10.16 bitrate=3775.5kbits/s speed=3.46x    
2026-01-04T12:03:00.806Z frame=57928 fps= 87 q=30.0 size= 1055488KiB time=00:38:10.16 bitrate=3775.5kbits/s speed=3.46x    
2026-01-04T12:03:00.806Z frame=57999 fps= 88 q=31.0 size= 1057280KiB time=00:38:10.16 bitrate=3781.9kbits/s speed=3.46x    
2026-01-04T12:03:00.806Z frame=58069 fps= 88 q=26.0 size= 1061888KiB time=00:38:42.76 bitrate=3745.1kbits/s speed= 3.5x    
2026-01-04T12:03:00.806Z frame=58125 fps= 88 q=24.0 size= 1061888KiB time=00:38:45.00 bitrate=3741.5kbits/s speed= 3.5x    
2026-01-04T12:03:00.806Z frame=58191 fps= 88 q=20.0 size= 1064192KiB time=00:38:47.64 bitrate=3745.4kbits/s speed= 3.5x    
2026-01-04T12:03:00.806Z frame=58247 fps= 88 q=20.0 size= 1064192KiB time=00:38:49.88 bitrate=3741.8kbits/s speed=3.51x    
2026-01-04T12:03:00.806Z frame=58299 fps= 88 q=21.0 size= 1066496KiB time=00:38:51.96 bitrate=3746.5kbits/s speed=3.51x    
2026-01-04T12:03:00.806Z frame=58376 fps= 88 q=22.0 size= 1066496KiB time=00:38:55.04 bitrate=3741.6kbits/s speed=3.51x    
2026-01-04T12:03:00.806Z frame=58437 fps= 88 q=21.0 size= 1068800KiB time=00:38:57.48 bitrate=3745.7kbits/s speed=3.51x    
2026-01-04T12:03:00.806Z frame=58497 fps= 88 q=24.0 size= 1068800KiB time=00:38:59.88 bitrate=3741.9kbits/s speed=3.51x    
2026-01-04T12:03:00.806Z frame=58541 fps= 88 q=22.0 size= 1071104KiB time=00:39:01.64 bitrate=3747.2kbits/s speed=3.51x    
2026-01-04T12:03:00.806Z frame=58587 fps= 88 q=21.0 size= 1071104KiB time=00:39:03.48 bitrate=3744.2kbits/s speed=3.51x    
2026-01-04T12:03:00.806Z frame=58637 fps= 88 q=23.0 size= 1073408KiB time=00:39:05.48 bitrate=3749.1kbits/s speed=3.51x    
2026-01-04T12:03:00.806Z frame=58685 fps= 88 q=24.0 size= 1073408KiB time=00:39:07.40 bitrate=3746.0kbits/s speed=3.51x    
2026-01-04T12:03:00.806Z frame=58734 fps= 88 q=25.0 size= 1073408KiB time=00:39:08.60 bitrate=3744.1kbits/s speed=3.51x    
2026-01-04T12:03:00.806Z frame=58793 fps= 88 q=24.0 size= 1073408KiB time=00:39:08.60 bitrate=3744.1kbits/s speed=3.51x    
2026-01-04T12:03:00.806Z frame=58867 fps= 88 q=23.0 size= 1073408KiB time=00:39:08.60 bitrate=3744.1kbits/s speed= 3.5x    
2026-01-04T12:03:00.806Z frame=58929 fps= 88 q=22.0 size= 1073408KiB time=00:39:08.60 bitrate=3744.1kbits/s speed= 3.5x    
2026-01-04T12:03:00.806Z frame=58991 fps= 88 q=26.0 size= 1075712KiB time=00:39:08.60 bitrate=3752.1kbits/s speed= 3.5x    
2026-01-04T12:03:00.806Z frame=59049 fps= 88 q=24.0 size= 1075712KiB time=00:39:08.60 bitrate=3752.1kbits/s speed= 3.5x    
2026-01-04T12:03:00.806Z frame=59095 fps= 88 q=20.0 size= 1078016KiB time=00:39:08.60 bitrate=3760.2kbits/s speed=3.49x    
2026-01-04T12:03:00.806Z frame=59136 fps= 88 q=20.0 size= 1078016KiB time=00:39:08.60 bitrate=3760.2kbits/s speed=3.49x    
2026-01-04T12:03:00.806Z frame=59175 fps= 88 q=23.0 size= 1078016KiB time=00:39:08.60 bitrate=3760.2kbits/s speed=3.49x    
2026-01-04T12:03:00.806Z frame=59219 fps= 88 q=21.0 size= 1080320KiB time=00:39:08.60 bitrate=3768.2kbits/s speed=3.49x    
2026-01-04T12:03:00.806Z frame=59259 fps= 88 q=24.0 size= 1080320KiB time=00:39:08.60 bitrate=3768.2kbits/s speed=3.48x    
2026-01-04T12:03:00.806Z frame=59301 fps= 88 q=21.0 size= 1080320KiB time=00:39:08.60 bitrate=3768.2kbits/s speed=3.48x    
2026-01-04T12:03:00.806Z frame=59339 fps= 88 q=25.0 size= 1082368KiB time=00:39:08.60 bitrate=3775.3kbits/s speed=3.48x    
2026-01-04T12:03:00.806Z frame=59379 fps= 88 q=24.0 size= 1082368KiB time=00:39:08.60 bitrate=3775.3kbits/s speed=3.48x    
2026-01-04T12:03:00.806Z frame=59423 fps= 88 q=24.0 size= 1082368KiB time=00:39:08.60 bitrate=3775.3kbits/s speed=3.47x    
2026-01-04T12:03:00.806Z frame=59440 fps= 88 q=23.0 size= 1082368KiB time=00:39:08.60 bitrate=3775.3kbits/s speed=3.47x    
2026-01-04T12:03:00.806Z frame=59487 fps= 88 q=21.0 size= 1084672KiB time=00:39:08.60 bitrate=3783.4kbits/s speed=3.47x    
2026-01-04T12:03:00.806Z frame=59529 fps= 88 q=21.0 size= 1084672KiB time=00:39:08.60 bitrate=3783.4kbits/s speed=3.47x    
2026-01-04T12:03:00.806Z frame=59575 fps= 88 q=24.0 size= 1087232KiB time=00:39:08.60 bitrate=3792.3kbits/s speed=3.46x    
2026-01-04T12:03:00.806Z frame=59617 fps= 88 q=23.0 size= 1087232KiB time=00:39:08.60 bitrate=3792.3kbits/s speed=3.46x    
2026-01-04T12:03:00.806Z frame=59659 fps= 88 q=23.0 size= 1087232KiB time=00:39:08.60 bitrate=3792.3kbits/s speed=3.46x    
2026-01-04T12:03:00.806Z frame=59701 fps= 88 q=21.0 size= 1089280KiB time=00:39:08.60 bitrate=3799.4kbits/s speed=3.46x    
2026-01-04T12:03:00.806Z frame=59745 fps= 88 q=23.0 size= 1089280KiB time=00:39:08.60 bitrate=3799.4kbits/s speed=3.45x    
2026-01-04T12:03:00.806Z frame=59789 fps= 88 q=22.0 size= 1089280KiB time=00:39:08.60 bitrate=3799.4kbits/s speed=3.45x    
2026-01-04T12:03:00.806Z frame=59833 fps= 88 q=32.0 size= 1091840KiB time=00:39:08.60 bitrate=3808.4kbits/s speed=3.45x    
2026-01-04T12:03:00.806Z frame=59879 fps= 88 q=31.0 size= 1096448KiB time=00:39:55.16 bitrate=3750.1kbits/s speed=3.51x    
2026-01-04T12:03:00.806Z frame=59925 fps= 88 q=31.0 size= 1096448KiB time=00:39:57.00 bitrate=3747.2kbits/s speed=3.51x    
2026-01-04T12:03:00.806Z frame=59965 fps= 88 q=31.0 size= 1096448KiB time=00:39:58.60 bitrate=3744.7kbits/s speed=3.51x    
2026-01-04T12:03:00.806Z frame=60006 fps= 88 q=26.0 size= 1096448KiB time=00:39:59.40 bitrate=3743.5kbits/s speed=3.51x    
2026-01-04T12:03:00.806Z frame=60053 fps= 88 q=25.0 size= 1098752KiB time=00:40:02.12 bitrate=3747.1kbits/s speed=3.51x    
2026-01-04T12:03:00.806Z frame=60093 fps= 88 q=24.0 size= 1098752KiB time=00:40:03.72 bitrate=3744.6kbits/s speed=3.51x    
2026-01-04T12:03:00.806Z frame=60131 fps= 88 q=23.0 size= 1100800KiB time=00:40:05.24 bitrate=3749.2kbits/s speed=3.51x    
2026-01-04T12:03:00.806Z frame=60167 fps= 88 q=24.0 size= 1100800KiB time=00:40:06.68 bitrate=3747.0kbits/s speed=3.51x    
2026-01-04T12:03:00.806Z frame=60205 fps= 88 q=23.0 size= 1100800KiB time=00:40:08.20 bitrate=3744.6kbits/s speed=3.51x    
2026-01-04T12:03:00.806Z frame=60249 fps= 88 q=23.0 size= 1100800KiB time=00:40:09.28 bitrate=3742.9kbits/s speed=3.51x    
2026-01-04T12:03:00.806Z frame=60291 fps= 88 q=24.0 size= 1103104KiB time=00:40:11.64 bitrate=3747.1kbits/s speed=3.51x    
2026-01-04T12:03:00.806Z frame=60329 fps= 88 q=24.0 size= 1103104KiB time=00:40:13.16 bitrate=3744.7kbits/s speed=3.51x    
2026-01-04T12:03:00.806Z frame=60369 fps= 88 q=21.0 size= 1103104KiB time=00:40:14.76 bitrate=3742.2kbits/s speed=3.51x    
2026-01-04T12:03:00.806Z frame=60409 fps= 88 q=23.0 size= 1105664KiB time=00:40:16.36 bitrate=3748.4kbits/s speed=3.51x    
2026-01-04T12:03:00.806Z frame=60449 fps= 88 q=24.0 size= 1105664KiB time=00:40:17.96 bitrate=3746.0kbits/s speed=3.51x    
2026-01-04T12:03:00.806Z frame=60493 fps= 88 q=23.0 size= 1105664KiB time=00:40:19.72 bitrate=3743.2kbits/s speed=3.51x    
2026-01-04T12:03:00.806Z frame=60535 fps= 88 q=20.0 size= 1107712KiB time=00:40:21.40 bitrate=3747.6kbits/s speed=3.51x    
2026-01-04T12:03:00.806Z frame=60581 fps= 88 q=21.0 size= 1107712KiB time=00:40:23.24 bitrate=3744.7kbits/s speed=3.51x    
2026-01-04T12:03:00.806Z frame=60621 fps= 88 q=21.0 size= 1107712KiB time=00:40:24.84 bitrate=3742.3kbits/s speed=3.51x    
2026-01-04T12:03:00.806Z frame=60665 fps= 88 q=21.0 size= 1110272KiB time=00:40:26.60 bitrate=3748.2kbits/s speed=3.51x    
2026-01-04T12:03:00.806Z frame=60711 fps= 88 q=20.0 size= 1110272KiB time=00:40:28.44 bitrate=3745.3kbits/s speed=3.51x    
2026-01-04T12:03:00.806Z frame=60755 fps= 88 q=21.0 size= 1110272KiB time=00:40:29.24 bitrate=3744.1kbits/s speed=3.51x    
2026-01-04T12:03:00.806Z frame=60801 fps= 88 q=21.0 size= 1112576KiB time=00:40:32.04 bitrate=3747.6kbits/s speed=3.51x    
2026-01-04T12:03:00.806Z frame=60847 fps= 88 q=22.0 size= 1112576KiB time=00:40:33.88 bitrate=3744.7kbits/s speed=3.51x    
2026-01-04T12:03:00.806Z frame=60889 fps= 88 q=21.0 size= 1114880KiB time=00:40:35.56 bitrate=3749.9kbits/s speed=3.51x    
2026-01-04T12:03:00.806Z frame=60931 fps= 88 q=24.0 size= 1114880KiB time=00:40:37.24 bitrate=3747.3kbits/s speed=3.51x    
2026-01-04T12:03:00.806Z frame=60971 fps= 88 q=30.0 size= 1114880KiB time=00:40:38.84 bitrate=3744.9kbits/s speed=3.51x    
2026-01-04T12:03:00.806Z frame=61011 fps= 88 q=24.0 size= 1117184KiB time=00:40:40.44 bitrate=3750.1kbits/s speed=3.51x    
2026-01-04T12:03:00.806Z frame=61047 fps= 88 q=24.0 size= 1117184KiB time=00:40:41.88 bitrate=3747.9kbits/s speed=3.51x    
2026-01-04T12:03:00.806Z frame=61085 fps= 88 q=25.0 size= 1117184KiB time=00:40:43.40 bitrate=3745.6kbits/s speed=3.51x    
2026-01-04T12:03:00.806Z frame=61121 fps= 88 q=23.0 size= 1117184KiB time=00:40:44.84 bitrate=3743.4kbits/s speed=3.51x    
2026-01-04T12:03:00.806Z frame=61161 fps= 88 q=21.0 size= 1119232KiB time=00:40:46.44 bitrate=3747.8kbits/s speed=3.51x    
2026-01-04T12:03:00.806Z frame=61201 fps= 88 q=24.0 size= 1119232KiB time=00:40:48.04 bitrate=3745.3kbits/s speed=3.51x    
2026-01-04T12:03:00.806Z frame=61241 fps= 88 q=24.0 size= 1119232KiB time=00:40:49.64 bitrate=3742.9kbits/s speed=3.51x    
2026-01-04T12:03:00.806Z frame=61279 fps= 88 q=20.0 size= 1121536KiB time=00:40:51.16 bitrate=3748.3kbits/s speed=3.51x    
2026-01-04T12:03:00.806Z frame=61321 fps= 88 q=21.0 size= 1121536KiB time=00:40:52.84 bitrate=3745.7kbits/s speed=3.51x    
2026-01-04T12:03:00.806Z frame=61360 fps= 88 q=26.0 size= 1121536KiB time=00:40:54.40 bitrate=3743.3kbits/s speed=3.51x    
2026-01-04T12:03:00.806Z frame=61400 fps= 88 q=25.0 size= 1124096KiB time=00:40:56.00 bitrate=3749.4kbits/s speed=3.51x    
2026-01-04T12:03:00.806Z frame=61446 fps= 88 q=23.0 size= 1124096KiB time=00:40:57.84 bitrate=3746.6kbits/s speed=3.51x    
2026-01-04T12:03:00.806Z frame=61488 fps= 88 q=24.0 size= 1124096KiB time=00:40:59.52 bitrate=3744.1kbits/s speed=3.51x    
2026-01-04T12:03:00.806Z frame=61532 fps= 88 q=21.0 size= 1126400KiB time=00:41:01.28 bitrate=3749.1kbits/s speed=3.51x    
2026-01-04T12:03:00.806Z frame=61586 fps= 88 q=23.0 size= 1126400KiB time=00:41:03.44 bitrate=3745.8kbits/s speed=3.51x    
2026-01-04T12:03:00.806Z frame=61644 fps= 88 q=23.0 size= 1128448KiB time=00:41:05.76 bitrate=3749.0kbits/s speed=3.51x    
2026-01-04T12:03:00.806Z frame=61702 fps= 88 q=23.0 size= 1128448KiB time=00:41:08.08 bitrate=3745.5kbits/s speed=3.51x    
2026-01-04T12:03:00.806Z frame=61768 fps= 88 q=23.0 size= 1130752KiB time=00:41:10.72 bitrate=3749.2kbits/s speed=3.51x    
2026-01-04T12:03:00.806Z frame=61833 fps= 88 q=19.0 size= 1130752KiB time=00:41:13.32 bitrate=3745.2kbits/s speed=3.51x    
2026-01-04T12:03:00.806Z frame=61899 fps= 88 q=25.0 size= 1130752KiB time=00:41:15.96 bitrate=3741.2kbits/s speed=3.51x    
2026-01-04T12:03:00.806Z frame=61964 fps= 88 q=24.0 size= 1133312KiB time=00:41:18.56 bitrate=3745.8kbits/s speed=3.51x    
2026-01-04T12:03:00.806Z frame=62030 fps= 88 q=24.0 size= 1135360KiB time=00:41:21.20 bitrate=3748.5kbits/s speed=3.52x    
2026-01-04T12:03:00.806Z frame=62096 fps= 88 q=23.0 size= 1135360KiB time=00:41:23.84 bitrate=3744.6kbits/s speed=3.52x    
2026-01-04T12:03:00.806Z frame=62161 fps= 88 q=24.0 size= 1137664KiB time=00:41:26.44 bitrate=3748.2kbits/s speed=3.52x    
2026-01-04T12:03:00.806Z frame=62226 fps= 88 q=22.0 size= 1137664KiB time=00:41:29.04 bitrate=3744.3kbits/s speed=3.52x    
2026-01-04T12:03:00.806Z frame=62290 fps= 88 q=22.0 size= 1139968KiB time=00:41:31.60 bitrate=3748.0kbits/s speed=3.52x    
2026-01-04T12:03:00.806Z frame=62357 fps= 88 q=24.0 size= 1139968KiB time=00:41:34.28 bitrate=3744.0kbits/s speed=3.52x    
2026-01-04T12:03:00.806Z frame=62424 fps= 88 q=24.0 size= 1142272KiB time=00:41:36.96 bitrate=3747.6kbits/s speed=3.52x    
2026-01-04T12:03:00.806Z frame=62496 fps= 88 q=20.0 size= 1142272KiB time=00:41:39.84 bitrate=3743.2kbits/s speed=3.52x    
2026-01-04T12:03:00.806Z frame=62583 fps= 88 q=23.0 size= 1144576KiB time=00:41:43.32 bitrate=3745.6kbits/s speed=3.53x    
2026-01-04T12:03:00.806Z frame=62679 fps= 88 q=22.0 size= 1146880KiB time=00:41:47.16 bitrate=3747.4kbits/s speed=3.53x    
2026-01-04T12:03:00.806Z frame=62766 fps= 88 q=22.0 size= 1149184KiB time=00:41:50.64 bitrate=3749.7kbits/s speed=3.53x    
2026-01-04T12:03:00.806Z frame=62866 fps= 88 q=23.0 size= 1149184KiB time=00:41:54.64 bitrate=3743.7kbits/s speed=3.54x    
2026-01-04T12:03:00.806Z frame=62968 fps= 88 q=24.0 size= 1151488KiB time=00:41:58.72 bitrate=3745.2kbits/s speed=3.54x    
2026-01-04T12:03:00.806Z frame=63068 fps= 89 q=23.0 size= 1153792KiB time=00:42:02.72 bitrate=3746.7kbits/s speed=3.54x    
2026-01-04T12:03:00.806Z frame=63168 fps= 89 q=24.0 size= 1153792KiB time=00:42:06.48 bitrate=3741.1kbits/s speed=3.54x    
2026-01-04T12:03:00.806Z frame=63336 fps= 89 q=22.0 size= 1156096KiB time=00:42:06.48 bitrate=3748.6kbits/s speed=3.54x    
2026-01-04T12:03:00.806Z frame=63509 fps= 89 q=24.0 size= 1158400KiB time=00:42:06.48 bitrate=3756.1kbits/s speed=3.54x    
2026-01-04T12:03:00.806Z frame=63688 fps= 89 q=28.0 size= 1163008KiB time=00:42:06.48 bitrate=3771.0kbits/s speed=3.54x    
2026-01-04T12:03:00.806Z frame=63859 fps= 89 q=27.0 size= 1165312KiB time=00:42:06.48 bitrate=3778.5kbits/s speed=3.53x    
2026-01-04T12:03:00.806Z frame=64045 fps= 90 q=25.0 size= 1167616KiB time=00:42:06.48 bitrate=3785.9kbits/s speed=3.53x    
2026-01-04T12:03:00.806Z frame=64250 fps= 90 q=27.0 size= 1172224KiB time=00:42:06.48 bitrate=3800.9kbits/s speed=3.53x    
2026-01-04T12:03:00.806Z frame=64452 fps= 90 q=27.0 size= 1176832KiB time=00:42:06.48 bitrate=3815.8kbits/s speed=3.53x    
2026-01-04T12:03:00.806Z frame=64627 fps= 90 q=27.0 size= 1179136KiB time=00:42:06.48 bitrate=3823.3kbits/s speed=3.53x    
2026-01-04T12:03:00.806Z frame=64831 fps= 90 q=26.0 size= 1183744KiB time=00:42:06.48 bitrate=3838.2kbits/s speed=3.52x    
2026-01-04T12:03:00.806Z frame=65027 fps= 91 q=26.0 size= 1186048KiB time=00:42:06.48 bitrate=3845.7kbits/s speed=3.52x    
2026-01-04T12:03:00.806Z frame=65215 fps= 91 q=25.0 size= 1190656KiB time=00:42:06.48 bitrate=3860.6kbits/s speed=3.52x    
2026-01-04T12:03:00.806Z frame=65416 fps= 91 q=27.0 size= 1192960KiB time=00:42:06.48 bitrate=3868.1kbits/s speed=3.52x    
2026-01-04T12:03:00.806Z frame=65616 fps= 91 q=26.0 size= 1197568KiB time=00:42:06.48 bitrate=3883.1kbits/s speed=3.51x    
2026-01-04T12:03:00.806Z frame=65818 fps= 91 q=24.0 size= 1202176KiB time=00:42:06.48 bitrate=3898.0kbits/s speed=3.51x    
2026-01-04T12:03:00.806Z frame=66020 fps= 92 q=24.0 size= 1204480KiB time=00:42:06.48 bitrate=3905.5kbits/s speed=3.51x    
2026-01-04T12:03:00.806Z frame=66189 fps= 92 q=26.0 size= 1206784KiB time=00:42:06.48 bitrate=3912.9kbits/s speed=3.51x    
2026-01-04T12:03:00.806Z frame=66382 fps= 92 q=26.0 size= 1211392KiB time=00:42:06.48 bitrate=3927.9kbits/s speed= 3.5x    
2026-01-04T12:03:00.806Z frame=66576 fps= 92 q=20.0 size= 1216000KiB time=00:42:06.48 bitrate=3942.8kbits/s speed= 3.5x    
2026-01-04T12:03:00.806Z frame=66774 fps= 92 q=20.0 size= 1218304KiB time=00:42:06.48 bitrate=3950.3kbits/s speed= 3.5x    
2026-01-04T12:03:00.806Z frame=66968 fps= 93 q=21.0 size= 1222656KiB time=00:42:06.48 bitrate=3964.4kbits/s speed= 3.5x    
2026-01-04T12:03:00.806Z [out#0/matroska @ 0x55f055702240] video:1186314KiB audio:41955KiB subtitle:150KiB other streams:0KiB global headers:0KiB muxing overhead: 0.089448%
2026-01-04T12:03:00.806Z frame=67125 fps= 93 q=16.0 Lsize= 1229517KiB time=00:42:06.48 bitrate=3986.7kbits/s speed=3.49x    
2026-01-04T12:03:00.806Z 
2026-01-04T12:03:00.806Z 
2026-01-04T12:03:00.806Z WE_ztjKCZtR:Node[MyInternalNode]:Worker[lined-lark]:[Step W06] [C1] Worker [-success-]
2026-01-04T12:03:00.806Z WE_ztjKCZtR:Node[MyInternalNode]:Worker[lined-lark]:Worker success during processing
2026-01-04T12:03:00.807Z WE_ztjKCZtR:Node[MyInternalNode]:Worker[lined-lark]:Updating transcode stats
2026-01-04T12:03:00.807Z WE_ztjKCZtR:Node[MyInternalNode]:Worker[lined-lark]:Deleting non-latest cache file "/media/tv/The Vendetta of An/Season 1/The.Vendetta.of.An.S01E14.1080p.NF.WEB-DL.AAC2.0.H.264-POWER.mkv"
2026-01-04T12:03:00.807Z WE_ztjKCZtR:Node[MyInternalNode]:Worker[lined-lark]:Scanning new file: "/tmp/tdarr-workDir2-WE_ztjKCZtR/The.Vendetta.of.An.S01E14.1080p.NF.WEB-DL.AAC2.0.H.264-POWER-TdarrCacheFile-Idn0wi1ms.mkv"
2026-01-04T12:03:00.808Z WE_ztjKCZtR:Node[MyInternalNode]:Worker[lined-lark]:Node scanning file
2026-01-04T12:03:00.808Z WE_ztjKCZtR:Node[MyInternalNode]:Worker[lined-lark]:Subworker exited null
2026-01-04T12:03:01.809Z WE_ztjKCZtR:Node[MyInternalNode]:Worker[lined-lark]:Scan complete
2026-01-04T12:03:01.810Z WE_ztjKCZtR:Node[MyInternalNode]:Worker[lined-lark]:pluginCycleLogJSONString:{"nodeName":"MyInternalNode","workerID":"lined-lark","pluginCycle":1,"outcome":"success","workerLog":"\nPre-processing - Tdarr_Plugin_MC93_MigzImageRemoval\n☑File doesn't contain any unwanted image format streams.\n\nPre-processing - Tdarr_Plugin_lmg1_Reorder_Streams\nFile has video in first stream\n File meets conditions!\n\nPre-processing - Tdarr_Plugin_MC93_Migz1FFMPEG\nContainer for output selected as mkv. \nCurrent bitrate = 5600 \nBitrate settings: \nTarget = 2800 \nMinimum = 1959 \nMaximum = 3640 \nFile is not hevc or vp9. Transcoding. \n","lastCliCommand":"tdarr-ffmpeg -c:v h264_cuvid -i \"/media/tv/The Vendetta of An/Season 1/The.Vendetta.of.An.S01E14.1080p.NF.WEB-DL.AAC2.0.H.264-POWER.mkv\" -map 0 -c:v hevc_nvenc -cq:v 19 -b:v 2800k -minrate 1959k -maxrate 3640k -bufsize 5600k -spatial_aq:v 1 -rc-lookahead:v 32 -c:a copy -c:s copy -max_muxing_queue_size 9999 /tmp/tdarr-workDir2-WE_ztjKCZtR/The.Vendetta.of.An.S01E14.1080p.NF.WEB-DL.AAC2.0.H.264-POWER-TdarrCacheFile-Idn0wi1ms.mkv"}
2026-01-04T12:03:01.810Z WE_ztjKCZtR:Node[MyInternalNode]:Worker[lined-lark]:fileVersionLogJSONString:{"lastCliCommand":"tdarr-ffmpeg -c:v h264_cuvid -i \"/media/tv/The Vendetta of An/Season 1/The.Vendetta.of.An.S01E14.1080p.NF.WEB-DL.AAC2.0.H.264-POWER.mkv\" -map 0 -c:v hevc_nvenc -cq:v 19 -b:v 2800k -minrate 1959k -maxrate 3640k -bufsize 5600k -spatial_aq:v 1 -rc-lookahead:v 32 -c:a copy -c:s copy -max_muxing_queue_size 9999 /tmp/tdarr-workDir2-WE_ztjKCZtR/The.Vendetta.of.An.S01E14.1080p.NF.WEB-DL.AAC2.0.H.264-POWER-TdarrCacheFile-Idn0wi1ms.mkv","lastPluginId":"Tdarr_Plugin_MC93_Migz1FFMPEG","sourceFile":{"_id":"/tmp/tdarr-workDir2-WE_ztjKCZtR/The.Vendetta.of.An.S01E14.1080p.NF.WEB-DL.AAC2.0.H.264-POWER-TdarrCacheFile-Idn0wi1ms.mkv","DB":"KU0woozLb","footprintId":"kMBEe0gMZY","file":"/tmp/tdarr-workDir2-WE_ztjKCZtR/The.Vendetta.of.An.S01E14.1080p.NF.WEB-DL.AAC2.0.H.264-POWER-TdarrCacheFile-Idn0wi1ms.mkv","fileNameWithoutExtension":"The.Vendetta.of.An.S01E14.1080p.NF.WEB-DL.AAC2.0.H.264-POWER-TdarrCacheFile-Idn0wi1ms","container":"mkv","scannerReads":{"ffProbeRead":"success","exiftoolRead":"success","mediaInfoRead":"not enabled","closedCaptionRead":"not enabled"},"createdAt":1767549779102,"lastPluginDetails":"none","bit_rate":3751148,"statSync":{"dev":62,"mode":33204,"nlink":1,"uid":1000,"gid":1000,"rdev":0,"blksize":4096,"ino":4720935,"size":1259025099,"blocks":2459048,"atimeMs":1767549778708.6028,"mtimeMs":1767549778476.5977,"ctimeMs":1767549778476.5977,"birthtimeMs":1767549055361.0903,"atime":"2026-01-04T18:02:58.709Z","mtime":"2026-01-04T18:02:58.477Z","ctime":"2026-01-04T18:02:58.477Z","birthtime":"2026-01-04T17:50:55.361Z"},"file_size":1200.6999006271362,"ffProbeData":{"streams":[{"index":0,"codec_name":"hevc","codec_long_name":"H.265 / HEVC (High Efficiency Video Coding)","profile":"Main","codec_type":"video","codec_tag_string":"[0][0][0][0]","codec_tag":"0x0000","width":1920,"height":1080,"coded_width":1920,"coded_height":1088,"closed_captions":0,"film_grain":0,"has_b_frames":0,"sample_aspect_ratio":"1:1","display_aspect_ratio":"16:9","pix_fmt":"yuv420p","level":120,"color_range":"tv","chroma_location":"left","field_order":"progressive","refs":1,"view_ids_available":"","view_pos_available":"","r_frame_rate":"25/1","avg_frame_rate":"25/1","time_base":"1/1000","start_pts":0,"start_time":"0.000000","extradata_size":125,"disposition":{"default":1,"dub":0,"original":1,"comment":0,"lyrics":0,"karaoke":0,"forced":0,"hearing_impaired":0,"visual_impaired":0,"clean_effects":0,"attached_pic":0,"timed_thumbnails":0,"non_diegetic":0,"captions":0,"descriptions":0,"metadata":0,"dependent":0,"still_image":0,"multilayer":0},"tags":{"BPS":"5742053","NUMBER_OF_FRAMES":"67125","NUMBER_OF_BYTES":"1927176763","_STATISTICS_WRITING_APP":"mkvmerge v94.0 ('Initiate') 64-bit","_STATISTICS_WRITING_DATE_UTC":"2025-12-18 10:04:37","_STATISTICS_TAGS":"BPS DURATION NUMBER_OF_FRAMES NUMBER_OF_BYTES","ENCODER":"Lavc61.19.101 hevc_nvenc","DURATION":"00:44:45.000000000"}},{"index":1,"codec_name":"aac","codec_long_name":"AAC (Advanced Audio Coding)","profile":"HE-AAC","codec_type":"audio","codec_tag_string":"[0][0][0][0]","codec_tag":"0x0000","sample_fmt":"fltp","sample_rate":"48000","channels":2,"channel_layout":"stereo","bits_per_sample":0,"initial_padding":0,"r_frame_rate":"0/0","avg_frame_rate":"0/0","time_base":"1/1000","start_pts":0,"start_time":"0.000000","extradata_size":5,"disposition":{"default":1,"dub":0,"original":1,"comment":0,"lyrics":0,"karaoke":0,"forced":0,"hearing_impaired":0,"visual_impaired":0,"clean_effects":0,"attached_pic":0,"timed_thumbnails":0,"non_diegetic":0,"captions":0,"descriptions":0,"metadata":0,"dependent":0,"still_image":0,"multilayer":0},"tags":{"language":"chi","title":"Chinese","BPS":"127999","NUMBER_OF_FRAMES":"62932","NUMBER_OF_BYTES":"42961578","_STATISTICS_WRITING_APP":"mkvmerge v94.0 ('Initiate') 64-bit","_STATISTICS_WRITING_DATE_UTC":"2025-12-18 10:04:37","_STATISTICS_TAGS":"BPS DURATION NUMBER_OF_FRAMES NUMBER_OF_BYTES","DURATION":"00:44:45.098000000"}},{"index":2,"codec_name":"subrip","codec_long_name":"SubRip subtitle","codec_type":"subtitle","codec_tag_string":"[0][0][0][0]","codec_tag":"0x0000","r_frame_rate":"0/0","avg_frame_rate":"0/0","time_base":"1/1000","start_pts":0,"start_time":"0.000000","duration_ts":2685098,"duration":"2685.098000","disposition":{"default":1,"dub":0,"original":1,"comment":0,"lyrics":0,"karaoke":0,"forced":0,"hearing_impaired":0,"visual_impaired":0,"clean_effects":0,"attached_pic":0,"timed_thumbnails":0,"non_diegetic":0,"captions":0,"descriptions":0,"metadata":0,"dependent":0,"still_image":0,"multilayer":0},"tags":{"language":"chi","title":"Chinese (Simplified)","BPS":"38","NUMBER_OF_FRAMES":"594","NUMBER_OF_BYTES":"11527","_STATISTICS_WRITING_APP":"mkvmerge v94.0 ('Initiate') 64-bit","_STATISTICS_WRITING_DATE_UTC":"2025-12-18 10:04:37","_STATISTICS_TAGS":"BPS DURATION NUMBER_OF_FRAMES NUMBER_OF_BYTES","DURATION":"00:42:06.480000000"}},{"index":3,"codec_name":"subrip","codec_long_name":"SubRip subtitle","codec_type":"subtitle","codec_tag_string":"[0][0][0][0]","codec_tag":"0x0000","r_frame_rate":"0/0","avg_frame_rate":"0/0","time_base":"1/1000","start_pts":0,"start_time":"0.000000","duration_ts":2685098,"duration":"2685.098000","disposition":{"default":0,"dub":1,"original":0,"comment":0,"lyrics":0,"karaoke":0,"forced":0,"hearing_impaired":0,"visual_impaired":0,"clean_effects":0,"attached_pic":0,"timed_thumbnails":0,"non_diegetic":0,"captions":0,"descriptions":0,"metadata":0,"dependent":0,"still_image":0,"multilayer":0},"tags":{"language":"eng","title":"English","BPS":"53","NUMBER_OF_FRAMES":"581","NUMBER_OF_BYTES":"16222","_STATISTICS_WRITING_APP":"mkvmerge v94.0 ('Initiate') 64-bit","_STATISTICS_WRITING_DATE_UTC":"2025-12-18 10:04:37","_STATISTICS_TAGS":"BPS DURATION NUMBER_OF_FRAMES NUMBER_OF_BYTES","DURATION":"00:42:06.480000000"}},{"index":4,"codec_name":"subrip","codec_long_name":"SubRip subtitle","codec_type":"subtitle","codec_tag_string":"[0][0][0][0]","codec_tag":"0x0000","r_frame_rate":"0/0","avg_frame_rate":"0/0","time_base":"1/1000","start_pts":0,"start_time":"0.000000","duration_ts":2685098,"duration":"2685.098000","disposition":{"default":0,"dub":1,"original":0,"comment":0,"lyrics":0,"karaoke":0,"forced":0,"hearing_impaired":0,"visual_impaired":0,"clean_effects":0,"attached_pic":0,"timed_thumbnails":0,"non_diegetic":0,"captions":0,"descriptions":0,"metadata":0,"dependent":0,"still_image":0,"multilayer":0},"tags":{"language":"spa","title":"Spanish","BPS":"53","NUMBER_OF_FRAMES":"593","NUMBER_OF_BYTES":"16139","_STATISTICS_WRITING_APP":"mkvmerge v94.0 ('Initiate') 64-bit","_STATISTICS_WRITING_DATE_UTC":"2025-12-18 10:04:37","_STATISTICS_TAGS":"BPS DURATION NUMBER_OF_FRAMES NUMBER_OF_BYTES","DURATION":"00:42:06.480000000"}},{"index":5,"codec_name":"subrip","codec_long_name":"SubRip subtitle","codec_type":"subtitle","codec_tag_string":"[0][0][0][0]","codec_tag":"0x0000","r_frame_rate":"0/0","avg_frame_rate":"0/0","time_base":"1/1000","start_pts":0,"start_time":"0.000000","duration_ts":2685098,"duration":"2685.098000","disposition":{"default":0,"dub":1,"original":0,"comment":0,"lyrics":0,"karaoke":0,"forced":0,"hearing_impaired":0,"visual_impaired":0,"clean_effects":0,"attached_pic":0,"timed_thumbnails":0,"non_diegetic":0,"captions":0,"descriptions":0,"metadata":0,"dependent":0,"still_image":0,"multilayer":0},"tags":{"language":"ind","title":"Indonesian","BPS":"63","NUMBER_OF_FRAMES":"590","NUMBER_OF_BYTES":"19181","_STATISTICS_WRITING_APP":"mkvmerge v94.0 ('Initiate') 64-bit","_STATISTICS_WRITING_DATE_UTC":"2025-12-18 10:04:37","_STATISTICS_TAGS":"BPS DURATION NUMBER_OF_FRAMES NUMBER_OF_BYTES","DURATION":"00:42:06.480000000"}},{"index":6,"codec_name":"subrip","codec_long_name":"SubRip subtitle","codec_type":"subtitle","codec_tag_string":"[0][0][0][0]","codec_tag":"0x0000","r_frame_rate":"0/0","avg_frame_rate":"0/0","time_base":"1/1000","start_pts":0,"start_time":"0.000000","duration_ts":2685098,"duration":"2685.098000","disposition":{"default":0,"dub":1,"original":0,"comment":0,"lyrics":0,"karaoke":0,"forced":0,"hearing_impaired":0,"visual_impaired":0,"clean_effects":0,"attached_pic":0,"timed_thumbnails":0,"non_diegetic":0,"captions":0,"descriptions":0,"metadata":0,"dependent":0,"still_image":0,"multilayer":0},"tags":{"language":"por","title":"Portuguese (Brazil)","BPS":"50","NUMBER_OF_FRAMES":"573","NUMBER_OF_BYTES":"16189","_STATISTICS_WRITING_APP":"mkvmerge v94.0 ('Initiate') 64-bit","_STATISTICS_WRITING_DATE_UTC":"2025-12-18 10:04:37","_STATISTICS_TAGS":"BPS DURATION NUMBER_OF_FRAMES NUMBER_OF_BYTES","DURATION":"00:44:41.240000000"}},{"index":7,"codec_name":"subrip","codec_long_name":"SubRip subtitle","codec_type":"subtitle","codec_tag_string":"[0][0][0][0]","codec_tag":"0x0000","r_frame_rate":"0/0","avg_frame_rate":"0/0","time_base":"1/1000","start_pts":0,"start_time":"0.000000","duration_ts":2685098,"duration":"2685.098000","disposition":{"default":0,"dub":1,"original":0,"comment":0,"lyrics":0,"karaoke":0,"forced":0,"hearing_impaired":0,"visual_impaired":0,"clean_effects":0,"attached_pic":0,"timed_thumbnails":0,"non_diegetic":0,"captions":0,"descriptions":0,"metadata":0,"dependent":0,"still_image":0,"multilayer":0},"tags":{"language":"tha","title":"Thai","BPS":"134","NUMBER_OF_FRAMES":"550","NUMBER_OF_BYTES":"40567","_STATISTICS_WRITING_APP":"mkvmerge v94.0 ('Initiate') 64-bit","_STATISTICS_WRITING_DATE_UTC":"2025-12-18 10:04:37","_STATISTICS_TAGS":"BPS DURATION NUMBER_OF_FRAMES NUMBER_OF_BYTES","DURATION":"00:42:06.480000000"}},{"index":8,"codec_name":"subrip","codec_long_name":"SubRip subtitle","codec_type":"subtitle","codec_tag_string":"[0][0][0][0]","codec_tag":"0x0000","r_frame_rate":"0/0","avg_frame_rate":"0/0","time_base":"1/1000","start_pts":0,"start_time":"0.000000","duration_ts":2685098,"duration":"2685.098000","disposition":{"default":0,"dub":1,"original":0,"comment":0,"lyrics":0,"karaoke":0,"forced":0,"hearing_impaired":0,"visual_impaired":0,"clean_effects":0,"attached_pic":0,"timed_thumbnails":0,"non_diegetic":0,"captions":0,"descriptions":0,"metadata":0,"dependent":0,"still_image":0,"multilayer":0},"tags":{"language":"vie","title":"Vietnamese","BPS":"69","NUMBER_OF_FRAMES":"574","NUMBER_OF_BYTES":"21128","_STATISTICS_WRITING_APP":"mkvmerge v94.0 ('Initiate') 64-bit","_STATISTICS_WRITING_DATE_UTC":"2025-12-18 10:04:37","_STATISTICS_TAGS":"BPS DURATION NUMBER_OF_FRAMES NUMBER_OF_BYTES","DURATION":"00:42:06.480000000"}},{"index":9,"codec_name":"subrip","codec_long_name":"SubRip subtitle","codec_type":"subtitle","codec_tag_string":"[0][0][0][0]","codec_tag":"0x0000","r_frame_rate":"0/0","avg_frame_rate":"0/0","time_base":"1/1000","start_pts":0,"start_time":"0.000000","duration_ts":2685098,"duration":"2685.098000","disposition":{"default":0,"dub":1,"original":0,"comment":0,"lyrics":0,"karaoke":0,"forced":0,"hearing_impaired":0,"visual_impaired":0,"clean_effects":0,"attached_pic":0,"timed_thumbnails":0,"non_diegetic":0,"captions":0,"descriptions":0,"metadata":0,"dependent":0,"still_image":0,"multilayer":0},"tags":{"language":"chi","title":"Chinese (Traditional)","BPS":"40","NUMBER_OF_FRAMES":"608","NUMBER_OF_BYTES":"12142","_STATISTICS_WRITING_APP":"mkvmerge v94.0 ('Initiate') 64-bit","_STATISTICS_WRITING_DATE_UTC":"2025-12-18 10:04:37","_STATISTICS_TAGS":"BPS DURATION NUMBER_OF_FRAMES NUMBER_OF_BYTES","DURATION":"00:42:06.480000000"}}],"format":{"filename":"/tmp/tdarr-workDir2-WE_ztjKCZtR/The.Vendetta.of.An.S01E14.1080p.NF.WEB-DL.AAC2.0.H.264-POWER-TdarrCacheFile-Idn0wi1ms.mkv","nb_streams":10,"nb_programs":0,"nb_stream_groups":0,"format_name":"matroska,webm","format_long_name":"Matroska / WebM","start_time":"0.000000","duration":"2685.098000","size":"1259025099","bit_rate":"3751148","probe_score":100,"tags":{"ENCODER":"Lavf61.7.100"}}},"meta":{"SourceFile":"/tmp/tdarr-workDir2-WE_ztjKCZtR/The.Vendetta.of.An.S01E14.1080p.NF.WEB-DL.AAC2.0.H.264-POWER-TdarrCacheFile-Idn0wi1ms.mkv","errors":[],"tz":"UTC","tzSource":"defaultVideosToUTC","Duration":"00:42:06.480000000","ExifToolVersion":12.6,"FileName":"The.Vendetta.of.An.S01E14.1080p.NF.WEB-DL.AAC2.0.H.264-POWER-TdarrCacheFile-Idn0wi1ms.mkv","Directory":"/tmp/tdarr-workDir2-WE_ztjKCZtR","FileSize":"1259 MB","FileModifyDate":{"_ctor":"ExifDateTime","year":2026,"month":1,"day":4,"hour":18,"minute":2,"second":58,"tzoffsetMinutes":0,"rawValue":"2026:01:04 18:02:58+00:00","zoneName":"UTC"},"FileAccessDate":{"_ctor":"ExifDateTime","year":2026,"month":1,"day":4,"hour":18,"minute":2,"second":58,"tzoffsetMinutes":0,"rawValue":"2026:01:04 18:02:58+00:00","zoneName":"UTC"},"FileInodeChangeDate":{"_ctor":"ExifDateTime","year":2026,"month":1,"day":4,"hour":18,"minute":2,"second":58,"tzoffsetMinutes":0,"rawValue":"2026:01:04 18:02:58+00:00","zoneName":"UTC"},"FilePermissions":"-rw-rw-r--","FileType":"MKV","FileTypeExtension":"mkv","MIMEType":"video/x-matroska","EBMLVersion":1,"EBMLReadVersion":1,"DocType":"matroska","DocTypeVersion":4,"DocTypeReadVersion":2,"TimecodeScale":"1 ms","MuxingApp":"Lavf61.7.100","WritingApp":"Lavf61.7.100","VideoFrameRate":25,"ImageWidth":1920,"ImageHeight":1080,"VideoScanType":"Unknown (2)","AudioChannels":2,"AudioSampleRate":24000,"OutputAudioSampleRate":48000,"AudioBitsPerSample":32,"TrackNumber":10,"TrackUID":"f13c53917d05d7ea","TrackName":"Chinese (Traditional)","TrackLanguage":"chi","TrackDefault":"No","CodecID":"S_TEXT/UTF8","TrackType":"Subtitle","ChapterTimeStart":"0:42:20","ChapterTimeEnd":"0:44:45","ChapterString":"Credits","ChapterLanguage":"und","Encoder":"Lavc61.19.101 hevc_nvenc","TagTrackUID":"f13c53917d05d7ea","BPS":40,"NumberOfFrames":608,"NumberOfBytes":12142,"StatisticsWritingApp":"mkvmerge v94.0 ('Initiate') 64-bit","StatisticsWritingDateUtc":{"_ctor":"ExifDateTime","year":2025,"month":12,"day":18,"hour":10,"minute":4,"second":37,"tzoffsetMinutes":0,"rawValue":"2025-12-18 10:04:37","zoneName":"UTC"},"StatisticsTags":"BPS DURATION NUMBER_OF_FRAMES NUMBER_OF_BYTES","ImageSize":"1920x1080","Megapixels":2.1},"mediaInfo":{},"hasClosedCaptions":false,"bumped":false,"HealthCheck":"","TranscodeDecisionMaker":"","holdUntil":0,"fileMedium":"video","video_codec_name":"hevc","audio_codec_name":"aac","video_resolution":"1080p","lastHealthCheckDate":0,"lastTranscodeDate":0,"history":"","oldSize":1.1725584967061877,"newSize":0,"newVsOldRatio":0,"videoStreamIndex":0,"duration":2685}}
2026-01-04T12:03:01.811Z WE_ztjKCZtR:Node[MyInternalNode]:Worker[lined-lark]:Transcodes during this job so far: 1
2026-01-04T12:03:01.811Z WE_ztjKCZtR:Node[MyInternalNode]:Worker[lined-lark]:[Step W02] [C2] Running pre-process file
2026-01-04T12:03:01.811Z WE_ztjKCZtR:Node[MyInternalNode]:Worker[lined-lark]:Checking files can be accessed
2026-01-04T12:03:01.811Z WE_ztjKCZtR:Node[MyInternalNode]:Worker[lined-lark]:File found locally
2026-01-04T12:03:01.812Z WE_ztjKCZtR:Node[MyInternalNode]:Worker[lined-lark]:Relevant paths can be accessed
2026-01-04T12:03:01.812Z WE_ztjKCZtR:Node[MyInternalNode]:Worker[lined-lark]:Source file: "/tmp/tdarr-workDir2-WE_ztjKCZtR/The.Vendetta.of.An.S01E14.1080p.NF.WEB-DL.AAC2.0.H.264-POWER-TdarrCacheFile-Idn0wi1ms.mkv"
2026-01-04T12:03:01.812Z WE_ztjKCZtR:Node[MyInternalNode]:Worker[lined-lark]:Cache folder: "/tmp/tdarr-workDir2-WE_ztjKCZtR"
2026-01-04T12:03:01.813Z WE_ztjKCZtR:Node[MyInternalNode]:Worker[lined-lark]:[Step W03] [C2] Analysing file - running plugins
2026-01-04T12:03:01.813Z WE_ztjKCZtR:Node[MyInternalNode]:Worker[lined-lark]:New cache file has already been scanned, no need to scan again
2026-01-04T12:03:01.813Z WE_ztjKCZtR:Node[MyInternalNode]:Worker[lined-lark]:Updating Node relay: Processing
2026-01-04T12:03:01.813Z WE_ztjKCZtR:Node[MyInternalNode]:Worker[lined-lark]:[1/2] Checking file frame count
2026-01-04T12:03:01.814Z WE_ztjKCZtR:Node[MyInternalNode]:Worker[lined-lark]:[2/2] Frame count 0
2026-01-04T12:03:01.814Z WE_ztjKCZtR:Node[MyInternalNode]:Worker[lined-lark]:Transcode task, determining transcode settings
2026-01-04T12:03:01.814Z WE_ztjKCZtR:Node[MyInternalNode]:Worker[lined-lark]:Plugin stack selected
2026-01-04T12:03:01.814Z WE_ztjKCZtR:Node[MyInternalNode]:Worker[lined-lark]:Plugin: plugin1:  Tdarr_Plugin_MC93_MigzImageRemoval
2026-01-04T12:03:01.815Z WE_ztjKCZtR:Node[MyInternalNode]:Worker[lined-lark]:[1/5] Reading plugin
2026-01-04T12:03:01.815Z WE_ztjKCZtR:Node[MyInternalNode]:Worker[lined-lark]:[2/5] Plugin read finished
2026-01-04T12:03:01.815Z WE_ztjKCZtR:Node[MyInternalNode]:Worker[lined-lark]:[3/5] Installing dependencies
2026-01-04T12:03:01.815Z WE_ztjKCZtR:Node[MyInternalNode]:Worker[lined-lark]:[4/5] Running plugin
2026-01-04T12:03:01.816Z WE_ztjKCZtR:Node[MyInternalNode]:Worker[lined-lark]:{"pluginInputs":{}}
2026-01-04T12:03:01.816Z WE_ztjKCZtR:Node[MyInternalNode]:Worker[lined-lark]:[5/5] Running plugin finished
2026-01-04T12:03:01.816Z WE_ztjKCZtR:Node[MyInternalNode]:Worker[lined-lark]:Plugin: plugin2:  Tdarr_Plugin_lmg1_Reorder_Streams
2026-01-04T12:03:01.816Z WE_ztjKCZtR:Node[MyInternalNode]:Worker[lined-lark]:[1/5] Reading plugin
2026-01-04T12:03:01.817Z WE_ztjKCZtR:Node[MyInternalNode]:Worker[lined-lark]:[2/5] Plugin read finished
2026-01-04T12:03:01.817Z WE_ztjKCZtR:Node[MyInternalNode]:Worker[lined-lark]:[3/5] Installing dependencies
2026-01-04T12:03:01.817Z WE_ztjKCZtR:Node[MyInternalNode]:Worker[lined-lark]:[4/5] Running plugin
2026-01-04T12:03:01.817Z WE_ztjKCZtR:Node[MyInternalNode]:Worker[lined-lark]:{"pluginInputs":{}}
2026-01-04T12:03:01.817Z WE_ztjKCZtR:Node[MyInternalNode]:Worker[lined-lark]:[5/5] Running plugin finished
2026-01-04T12:03:01.818Z WE_ztjKCZtR:Node[MyInternalNode]:Worker[lined-lark]:Plugin: plugin4:  Tdarr_Plugin_MC93_Migz1FFMPEG
2026-01-04T12:03:01.818Z WE_ztjKCZtR:Node[MyInternalNode]:Worker[lined-lark]:[1/5] Reading plugin
2026-01-04T12:03:01.818Z WE_ztjKCZtR:Node[MyInternalNode]:Worker[lined-lark]:[2/5] Plugin read finished
2026-01-04T12:03:01.818Z WE_ztjKCZtR:Node[MyInternalNode]:Worker[lined-lark]:[3/5] Installing dependencies
2026-01-04T12:03:01.819Z WE_ztjKCZtR:Node[MyInternalNode]:Worker[lined-lark]:[4/5] Running plugin
2026-01-04T12:03:01.819Z WE_ztjKCZtR:Node[MyInternalNode]:Worker[lined-lark]:{"pluginInputs":{"container":"mkv","bitrate_cutoff":"","enable_10bit":false,"enable_bframes":false,"force_conform":false}}
2026-01-04T12:03:01.819Z WE_ztjKCZtR:Node[MyInternalNode]:Worker[lined-lark]:[5/5] Running plugin finished
2026-01-04T12:03:01.819Z WE_ztjKCZtR:Node[MyInternalNode]:Worker[lined-lark]:Plugin: plugin5:  Tdarr_Plugin_a9he_New_file_size_check
2026-01-04T12:03:01.820Z WE_ztjKCZtR:Node[MyInternalNode]:Worker[lined-lark]:[1/5] Reading plugin
2026-01-04T12:03:01.820Z WE_ztjKCZtR:Node[MyInternalNode]:Worker[lined-lark]:[2/5] Plugin read finished
2026-01-04T12:03:01.820Z WE_ztjKCZtR:Node[MyInternalNode]:Worker[lined-lark]:[3/5] Installing dependencies
2026-01-04T12:03:01.820Z WE_ztjKCZtR:Node[MyInternalNode]:Worker[lined-lark]:[4/5] Running plugin
2026-01-04T12:03:01.821Z WE_ztjKCZtR:Node[MyInternalNode]:Worker[lined-lark]:{"pluginInputs":{"upperBound":110,"lowerBound":40}}
2026-01-04T12:03:01.821Z WE_ztjKCZtR:Node[MyInternalNode]:Worker[lined-lark]:[5/5] Running plugin finished
2026-01-04T12:03:01.821Z WE_ztjKCZtR:Node[MyInternalNode]:Worker[lined-lark]:Worker config: {
2026-01-04T12:03:01.821Z   "processFile": false,
2026-01-04T12:03:01.821Z   "preset": "",
2026-01-04T12:03:01.821Z   "handBrakeMode": false,
2026-01-04T12:03:01.821Z   "FFmpegMode": true,
2026-01-04T12:03:01.821Z   "reQueueAfter": true,
2026-01-04T12:03:01.821Z   "infoLog": "New file has size 1200.700 MB which is 63% of original file size:  1879.837 MB",
2026-01-04T12:03:01.821Z   "ffmpegMode": true,
2026-01-04T12:03:01.821Z   "cliToUse": "ffmpeg"
2026-01-04T12:03:01.821Z }
2026-01-04T12:03:01.821Z WE_ztjKCZtR:Node[MyInternalNode]:Worker[lined-lark]:Worker log: 
2026-01-04T12:03:01.821Z Pre-processing - Tdarr_Plugin_MC93_MigzImageRemoval
2026-01-04T12:03:01.821Z ☑File doesn't contain any unwanted image format streams.
2026-01-04T12:03:01.821Z 
2026-01-04T12:03:01.821Z Pre-processing - Tdarr_Plugin_lmg1_Reorder_Streams
2026-01-04T12:03:01.821Z File has video in first stream
2026-01-04T12:03:01.821Z  File meets conditions!
2026-01-04T12:03:01.821Z 
2026-01-04T12:03:01.821Z Pre-processing - Tdarr_Plugin_MC93_Migz1FFMPEG
2026-01-04T12:03:01.821Z File is already hevc or vp9 & in mkv. 
2026-01-04T12:03:01.821Z 
2026-01-04T12:03:01.821Z Pre-processing - Tdarr_Plugin_a9he_New_file_size_check
2026-01-04T12:03:01.821Z New file has size 1200.700 MB which is 63% of original file size:  1879.837 MB
2026-01-04T12:03:01.822Z WE_ztjKCZtR:Node[MyInternalNode]:Worker[lined-lark]:[Step W08] [-success-] Job end
2026-01-04T12:03:01.822Z WE_ztjKCZtR:Node[MyInternalNode]:Worker[lined-lark]:Transcoding successful. Finished job.
2026-01-04T12:03:01.822Z WE_ztjKCZtR:Node[MyInternalNode]:Worker[lined-lark]:[Step W10] Worker processing end
2026-01-04T12:03:01.822Z WE_ztjKCZtR:Node[MyInternalNode]:Worker[lined-lark]:Successfully updated server with verdict: transcodeSuccess
